<?xml version="1.0" encoding="UTF-8"?>
<!DOCTYPE svg PUBLIC "-//W3C//DTD SVG 1.1//EN" "http://www.w3.org/Graphics/SVG/1.1/DTD/svg11.dtd">
<!-- Creator: CorelDRAW -->
<svg xmlns="http://www.w3.org/2000/svg" xml:space="preserve" width="140.676mm" height="25.0592mm" version="1.1" style="shape-rendering:geometricPrecision; text-rendering:geometricPrecision; image-rendering:optimizeQuality; fill-rule:evenodd; clip-rule:evenodd"
viewBox="0 0 12139.47 2162.46"
 xmlns:xlink="http://www.w3.org/1999/xlink"
 xmlns:xodm="http://www.corel.com/coreldraw/odm/2003">
 <defs>
  <style type="text/css">
   <![CDATA[
    .fil1 {fill:black}
    .fil0 {fill:white}
   ]]>
  </style>
 </defs>
 <g id="Layer_x0020_1">
  <metadata id="CorelCorpID_0Corel-Layer"/>
  <g>
   <polygon class="fil0" points="153.02,103.31 11986.45,103.31 11986.45,2059.14 153.02,2059.14 "/>
   <path id="_1" class="fil1" d="M46.59 0.45l11833.43 0 259.3 0 0 175.15 0 1955.83 0 30.57 -46.45 0 -11833.43 0 -259.3 0 0 -175.15 0 -1955.83 0 -30.57 46.45 0zm106.43 102.86l11833.43 0 0 1955.83 -11833.43 0 0 -1955.83z"/>
  </g>
  <g>
   <polygon class="fil0" points="261.76,207.75 11877.71,207.75 11877.71,1954.7 261.76,1954.7 "/>
   <path id="_1_0" class="fil1" d="M301.8 246.48l-20.53 0 -19.52 -18.87 0 -19.79 0.07 0 -0.07 -0.07 205.34 0 20.62 0 40.07 38.73 -20.55 0 0.01 0.01 -205.43 0 -0.01 -0.01zm329.63 -38.73l20.62 0 40.07 38.73 -20.55 0 0.01 0.01 -41.08 0 -0.01 -0.01 -20.53 0 -39.98 -38.66 20.53 0 -0.07 -0.07 41 0zm328.68 0l20.62 0 40.07 38.73 -20.55 0 0.01 0.01 -205.43 0 -0.01 -0.01 -20.53 0 -39.98 -38.66 20.53 0 -0.07 -0.07 205.34 0zm164.34 0l20.62 0 40.07 38.73 -20.55 0 0.01 0.01 -41.08 0 -0.01 -0.01 -20.53 0 -39.98 -38.66 20.53 0 -0.07 -0.07 41 0zm328.68 0l20.62 0 40.07 38.73 -20.55 0 0.01 0.01 -205.43 0 -0.01 -0.01 -20.53 0 -39.98 -38.66 20.53 0 -0.07 -0.07 205.34 0zm164.34 0l20.62 0 40.07 38.73 -20.55 0 0.01 0.01 -41.08 0 -0.01 -0.01 -20.53 0 -39.98 -38.66 20.53 0 -0.07 -0.07 41 0zm328.68 0l20.62 0 40.07 38.73 -20.55 0 0.01 0.01 -205.43 0 -0.01 -0.01 -20.53 0 -39.98 -38.66 20.53 0 -0.07 -0.07 205.34 0zm164.34 0l20.62 0 40.07 38.73 -20.55 0 0.01 0.01 -41.08 0 -0.01 -0.01 -20.53 0 -39.98 -38.66 20.53 0 -0.07 -0.07 41 0zm328.68 0l20.62 0 40.07 38.73 -20.55 0 0.01 0.01 -205.43 0 -0.01 -0.01 -20.53 0 -39.98 -38.66 20.53 0 -0.07 -0.07 205.34 0zm164.34 0l20.62 0 40.07 38.73 -20.55 0 0.01 0.01 -41.08 0 -0.01 -0.01 -20.53 0 -39.98 -38.66 20.53 0 -0.07 -0.07 41 0zm328.68 0l20.62 0 40.07 38.73 -20.55 0 0.01 0.01 -205.43 0 -0.01 -0.01 -20.53 0 -39.98 -38.66 20.53 0 -0.07 -0.07 205.34 0zm164.34 0l20.62 0 40.07 38.73 -20.55 0 0.01 0.01 -41.08 0 -0.01 -0.01 -20.53 0 -39.98 -38.66 20.53 0 -0.07 -0.07 41 0zm328.68 0l20.62 0 40.07 38.73 -20.55 0 0.01 0.01 -205.43 0 -0.01 -0.01 -20.53 0 -39.98 -38.66 20.53 0 -0.07 -0.07 205.34 0zm164.34 0l20.62 0 40.07 38.73 -20.55 0 0.01 0.01 -41.08 0 -0.01 -0.01 -20.53 0 -39.98 -38.66 20.53 0 -0.07 -0.07 41 0zm328.68 0l20.62 0 40.07 38.73 -20.55 0 0.01 0.01 -205.43 0 -0.01 -0.01 -20.53 0 -39.98 -38.66 20.53 0 -0.07 -0.07 205.34 0zm164.34 0l20.62 0 40.07 38.73 -20.55 0 0.01 0.01 -41.08 0 -0.01 -0.01 -20.53 0 -39.98 -38.66 20.53 0 -0.07 -0.07 41 0zm328.69 0l20.62 0 40.07 38.73 -20.55 0 0.01 0.01 -205.43 0 -0.01 -0.01 -20.53 0 -39.98 -38.66 20.53 0 -0.07 -0.07 205.34 0zm164.35 0l20.62 0 40.07 38.73 -20.55 0 0.01 0.01 -41.08 0 -0.01 -0.01 -20.53 0 -39.98 -38.66 20.53 0 -0.07 -0.07 41 0zm328.69 0l20.62 0 40.07 38.73 -20.55 0 0.01 0.01 -205.43 0 -0.01 -0.01 -20.53 0 -39.98 -38.66 20.53 0 -0.07 -0.07 205.34 0zm164.35 0l20.62 0 40.07 38.73 -20.55 0 0.01 0.01 -41.08 0 -0.01 -0.01 -20.53 0 -39.98 -38.66 20.53 0 -0.07 -0.07 41 0zm328.69 0l20.62 0 40.07 38.73 -20.55 0 0.01 0.01 -205.43 0 -0.01 -0.01 -20.53 0 -39.98 -38.66 20.53 0 -0.07 -0.07 205.34 0zm164.35 0l20.62 0 40.07 38.73 -20.55 0 0.01 0.01 -41.08 0 -0.01 -0.01 -20.53 0 -39.98 -38.66 20.53 0 -0.07 -0.07 41 0zm328.69 0l20.62 0 40.07 38.73 -20.55 0 0.01 0.01 -205.43 0 -0.01 -0.01 -20.53 0 -39.98 -38.66 20.53 0 -0.07 -0.07 205.34 0zm164.35 0l20.62 0 40.07 38.73 -20.55 0 0.01 0.01 -41.08 0 -0.01 -0.01 -20.53 0 -39.98 -38.66 20.53 0 -0.07 -0.07 41 0zm328.69 0l20.62 0 40.07 38.73 -20.55 0 0.01 0.01 -205.43 0 -0.01 -0.01 -20.53 0 -39.98 -38.66 20.53 0 -0.07 -0.07 205.34 0zm164.35 0l20.62 0 40.07 38.73 -20.55 0 0.01 0.01 -41.08 0 -0.01 -0.01 -20.53 0 -39.98 -38.66 20.53 0 -0.07 -0.07 41 0zm328.69 0l20.62 0 40.07 38.73 -20.55 0 0.01 0.01 -205.43 0 -0.01 -0.01 -20.53 0 -39.98 -38.66 20.53 0 -0.07 -0.07 205.34 0zm164.35 0l20.62 0 40.07 38.73 -20.55 0 0.01 0.01 -41.08 0 -0.01 -0.01 -20.53 0 -39.98 -38.66 20.53 0 -0.07 -0.07 41 0zm328.69 0l20.62 0 40.07 38.73 -20.55 0 0.01 0.01 -205.43 0 -0.01 -0.01 -20.53 0 -39.98 -38.66 20.53 0 -0.07 -0.07 205.34 0zm164.35 0l20.62 0 40.07 38.73 -20.55 0 0.01 0.01 -41.08 0 -0.01 -0.01 -20.53 0 -39.98 -38.66 20.53 0 -0.07 -0.07 41 0zm328.7 0l20.62 0 40.07 38.73 -20.55 0 0.01 0.01 -205.44 0 -0.01 -0.01 -20.53 0 -39.98 -38.66 20.53 0 -0.07 -0.07 205.35 0zm164.35 0l20.62 0 40.07 38.73 -20.55 0 0.01 0.01 -41.08 0 -0.01 -0.01 -20.53 0 -39.98 -38.66 20.53 0 -0.07 -0.07 41 0zm328.7 0l20.62 0 40.07 38.73 -20.55 0 0.01 0.01 -205.44 0 -0.01 -0.01 -20.53 0 -39.98 -38.66 20.53 0 -0.07 -0.07 205.35 0zm164.35 0l20.62 0 40.07 38.73 -20.55 0 0.01 0.01 -41.08 0 -0.01 -0.01 -20.53 0 -39.98 -38.66 20.53 0 -0.07 -0.07 41 0zm328.7 0l20.62 0 40.07 38.73 -20.55 0 0.01 0.01 -205.44 0 -0.01 -0.01 -20.53 0 -39.98 -38.66 20.53 0 -0.07 -0.07 205.35 0zm164.35 0l20.62 0 40.07 38.73 -20.55 0 0.01 0.01 -41.08 0 -0.01 -0.01 -20.53 0 -39.98 -38.66 20.53 0 -0.07 -0.07 41 0zm328.7 0l20.62 0 40.07 38.73 -20.55 0 0.01 0.01 -205.44 0 -0.01 -0.01 -20.53 0 -39.98 -38.66 20.53 0 -0.07 -0.07 205.35 0zm164.35 0l20.62 0 40.07 38.73 -20.55 0 0.01 0.01 -41.08 0 -0.01 -0.01 -20.53 0 -39.98 -38.66 20.53 0 -0.07 -0.07 41 0zm328.7 0l20.62 0 40.07 38.73 -20.55 0 0.01 0.01 -205.44 0 -0.01 -0.01 -20.53 0 -39.98 -38.66 20.53 0 -0.07 -0.07 205.35 0zm164.35 0l20.62 0 40.07 38.73 -20.55 0 0.01 0.01 -41.08 0 -0.01 -0.01 -20.53 0 -39.98 -38.66 20.53 0 -0.07 -0.07 41 0zm328.7 0l20.62 0 40.07 38.73 -20.55 0 0.01 0.01 -205.44 0 -0.01 -0.01 -20.53 0 -39.98 -38.66 20.53 0 -0.07 -0.07 205.35 0zm164.35 0l20.62 0 40.07 38.73 -20.55 0 0.01 0.01 -41.08 0 -0.01 -0.01 -20.53 0 -39.98 -38.66 20.53 0 -0.07 -0.07 41 0zm328.7 0l20.62 0 40.07 38.73 -20.55 0 0.01 0.01 -205.44 0 -0.01 -0.01 -20.53 0 -39.98 -38.66 20.53 0 -0.07 -0.07 205.35 0zm164.35 0l20.62 0 40.07 38.73 -20.55 0 0.01 0.01 -41.08 0 -0.01 -0.01 -20.53 0 -39.98 -38.66 20.53 0 -0.07 -0.07 41 0zm328.72 0l20.62 0 40.07 38.73 -20.55 0 0.01 0.01 -205.45 0 -0.01 -0.01 -20.53 0 -39.98 -38.66 20.53 0 -0.07 -0.07 205.36 0zm164.36 0l20.62 0 40.07 38.73 -20.55 0 0.01 0.01 -41.08 0 -0.01 -0.01 -20.53 0 -39.98 -38.66 20.53 0 -0.07 -0.07 41 0zm328.73 0l24.68 0 45.91 21.63 0 13.87 0.1 0.05 0 27.68 0 13.92 -57.39 -27.04 0 -11.37 -178.62 0 -0.01 -0.01 -20.53 0 -39.98 -38.66 20.53 0 -0.07 -0.07 205.37 0zm70.69 285.14l0 13.92 -57.39 -27.04 0 -13.87 0 -0.05 0 -138.59 0 -0.05 0 -13.87 57.28 26.99 0 13.87 0.1 0.05 0 138.64zm0 110.95l0 13.92 -57.39 -27.04 0 -13.87 0 -0.05 0 -27.63 0 -0.05 0 -13.87 57.28 26.99 0 13.87 0.1 0.05 0 27.68zm0 221.9l0 13.92 -57.39 -27.04 0 -13.87 0 -0.05 0 -138.59 0 -0.05 0 -13.87 57.28 26.99 0 13.87 0.1 0.05 0 138.64zm0 110.95l0 13.92 -57.39 -27.04 0 -13.87 0 -0.05 0 -27.63 0 -0.05 0 -13.87 57.28 26.99 0 13.87 0.1 0.05 0 27.68zm0 221.9l0 13.92 -57.39 -27.04 0 -13.87 0 -0.05 0 -138.59 0 -0.05 0 -13.87 57.28 26.99 0 13.87 0.1 0.05 0 138.64zm0 110.95l0 13.92 -57.39 -27.04 0 -13.87 0 -0.05 0 -27.63 0 -0.05 0 -13.87 57.28 26.99 0 13.87 0.1 0.05 0 27.68zm0 221.91l0 13.92 -57.39 -27.04 0 -13.87 0 -0.05 0 -138.6 0 -0.05 0 -13.87 57.28 26.99 0 13.87 0.1 0.05 0 138.65zm0 110.96l0 13.92 -57.39 -27.04 0 -13.87 0 -0.05 0 -27.63 0 -0.05 0 -13.87 57.28 26.99 0 13.87 0.1 0.05 0 27.68zm0 221.93l0 13.92 -57.39 -27.04 0 -13.87 0 -0.05 0 -138.61 0 -0.05 0 -13.87 57.28 26.99 0 13.87 0.1 0.05 0 138.66zm0 110.97l0 13.92 -57.39 -27.04 0 -13.87 0 -0.05 0 -27.64 0 -0.05 0 -13.87 57.28 26.99 0 13.87 0.1 0.05 0 27.69zm-299.97 19.39l-20.62 0 -40.07 -38.73 20.55 0 -0.01 -0.01 205.43 0 0.01 0.01 20.53 0 39.98 38.66 -20.53 0 0.07 0.07 -205.34 0zm-164.34 0l-20.62 0 -40.07 -38.73 20.55 0 -0.01 -0.01 41.08 0 0.01 0.01 20.53 0 39.98 38.66 -20.53 0 0.07 0.07 -41 0zm-328.68 0l-20.62 0 -40.07 -38.73 20.55 0 -0.01 -0.01 205.43 0 0.01 0.01 20.53 0 39.98 38.66 -20.53 0 0.07 0.07 -205.34 0zm-164.34 0l-20.62 0 -40.07 -38.73 20.55 0 -0.01 -0.01 41.08 0 0.01 0.01 20.53 0 39.98 38.66 -20.53 0 0.07 0.07 -41 0zm-328.68 0l-20.62 0 -40.07 -38.73 20.55 0 -0.01 -0.01 205.43 0 0.01 0.01 20.53 0 39.98 38.66 -20.53 0 0.07 0.07 -205.34 0zm-164.34 0l-20.62 0 -40.07 -38.73 20.55 0 -0.01 -0.01 41.08 0 0.01 0.01 20.53 0 39.98 38.66 -20.53 0 0.07 0.07 -41 0zm-328.68 0l-20.62 0 -40.07 -38.73 20.55 0 -0.01 -0.01 205.43 0 0.01 0.01 20.53 0 39.98 38.66 -20.53 0 0.07 0.07 -205.34 0zm-164.34 0l-20.62 0 -40.07 -38.73 20.55 0 -0.01 -0.01 41.08 0 0.01 0.01 20.53 0 39.98 38.66 -20.53 0 0.07 0.07 -41 0zm-328.68 0l-20.62 0 -40.07 -38.73 20.55 0 -0.01 -0.01 205.43 0 0.01 0.01 20.53 0 39.98 38.66 -20.53 0 0.07 0.07 -205.34 0zm-164.34 0l-20.62 0 -40.07 -38.73 20.55 0 -0.01 -0.01 41.08 0 0.01 0.01 20.53 0 39.98 38.66 -20.53 0 0.07 0.07 -41 0zm-328.68 0l-20.62 0 -40.07 -38.73 20.55 0 -0.01 -0.01 205.43 0 0.01 0.01 20.53 0 39.98 38.66 -20.53 0 0.07 0.07 -205.34 0zm-164.34 0l-20.62 0 -40.07 -38.73 20.55 0 -0.01 -0.01 41.08 0 0.01 0.01 20.53 0 39.98 38.66 -20.53 0 0.07 0.07 -41 0zm-328.68 0l-20.62 0 -40.07 -38.73 20.55 0 -0.01 -0.01 205.43 0 0.01 0.01 20.53 0 39.98 38.66 -20.53 0 0.07 0.07 -205.34 0zm-164.34 0l-20.62 0 -40.07 -38.73 20.55 0 -0.01 -0.01 41.08 0 0.01 0.01 20.53 0 39.98 38.66 -20.53 0 0.07 0.07 -41 0zm-328.68 0l-20.62 0 -40.07 -38.73 20.55 0 -0.01 -0.01 205.43 0 0.01 0.01 20.53 0 39.98 38.66 -20.53 0 0.07 0.07 -205.34 0zm-164.35 0l-20.62 0 -40.07 -38.73 20.55 0 -0.01 -0.01 41.08 0 0.01 0.01 20.53 0 39.98 38.66 -20.53 0 0.07 0.07 -41 0zm-328.69 0l-20.62 0 -40.07 -38.73 20.55 0 -0.01 -0.01 205.43 0 0.01 0.01 20.53 0 39.98 38.66 -20.53 0 0.07 0.07 -205.34 0zm-164.35 0l-20.62 0 -40.07 -38.73 20.55 0 -0.01 -0.01 41.08 0 0.01 0.01 20.53 0 39.98 38.66 -20.53 0 0.07 0.07 -41 0zm-328.69 0l-20.62 0 -40.07 -38.73 20.55 0 -0.01 -0.01 205.43 0 0.01 0.01 20.53 0 39.98 38.66 -20.53 0 0.07 0.07 -205.34 0zm-164.35 0l-20.62 0 -40.07 -38.73 20.55 0 -0.01 -0.01 41.08 0 0.01 0.01 20.53 0 39.98 38.66 -20.53 0 0.07 0.07 -41 0zm-328.69 0l-20.62 0 -40.07 -38.73 20.55 0 -0.01 -0.01 205.43 0 0.01 0.01 20.53 0 39.98 38.66 -20.53 0 0.07 0.07 -205.34 0zm-164.35 0l-20.62 0 -40.07 -38.73 20.55 0 -0.01 -0.01 41.08 0 0.01 0.01 20.53 0 39.98 38.66 -20.53 0 0.07 0.07 -41 0zm-328.69 0l-20.62 0 -40.07 -38.73 20.55 0 -0.01 -0.01 205.43 0 0.01 0.01 20.53 0 39.98 38.66 -20.53 0 0.07 0.07 -205.34 0zm-164.35 0l-20.62 0 -40.07 -38.73 20.55 0 -0.01 -0.01 41.08 0 0.01 0.01 20.53 0 39.98 38.66 -20.53 0 0.07 0.07 -41 0zm-328.69 0l-20.62 0 -40.07 -38.73 20.55 0 -0.01 -0.01 205.43 0 0.01 0.01 20.53 0 39.98 38.66 -20.53 0 0.07 0.07 -205.34 0zm-164.35 0l-20.62 0 -40.07 -38.73 20.55 0 -0.01 -0.01 41.08 0 0.01 0.01 20.53 0 39.98 38.66 -20.53 0 0.07 0.07 -41 0zm-328.69 0l-20.62 0 -40.07 -38.73 20.55 0 -0.01 -0.01 205.43 0 0.01 0.01 20.53 0 39.98 38.66 -20.53 0 0.07 0.07 -205.34 0zm-164.35 0l-20.62 0 -40.07 -38.73 20.55 0 -0.01 -0.01 41.08 0 0.01 0.01 20.53 0 39.98 38.66 -20.53 0 0.07 0.07 -41 0zm-328.69 0l-20.62 0 -40.07 -38.73 20.55 0 -0.01 -0.01 205.43 0 0.01 0.01 20.53 0 39.98 38.66 -20.53 0 0.07 0.07 -205.34 0zm-164.35 0l-20.62 0 -40.07 -38.73 20.55 0 -0.01 -0.01 41.08 0 0.01 0.01 20.53 0 39.98 38.66 -20.53 0 0.07 0.07 -41 0zm-328.7 0l-20.62 0 -40.07 -38.73 20.55 0 -0.01 -0.01 205.44 0 0.01 0.01 20.53 0 39.98 38.66 -20.53 0 0.07 0.07 -205.35 0zm-164.35 0l-20.62 0 -40.07 -38.73 20.55 0 -0.01 -0.01 41.08 0 0.01 0.01 20.53 0 39.98 38.66 -20.53 0 0.07 0.07 -41 0zm-328.7 0l-20.62 0 -40.07 -38.73 20.55 0 -0.01 -0.01 205.44 0 0.01 0.01 20.53 0 39.98 38.66 -20.53 0 0.07 0.07 -205.35 0zm-164.35 0l-20.62 0 -40.07 -38.73 20.55 0 -0.01 -0.01 41.08 0 0.01 0.01 20.53 0 39.98 38.66 -20.53 0 0.07 0.07 -41 0zm-328.7 0l-20.62 0 -40.07 -38.73 20.55 0 -0.01 -0.01 205.44 0 0.01 0.01 20.53 0 39.98 38.66 -20.53 0 0.07 0.07 -205.35 0zm-164.35 0l-20.62 0 -40.07 -38.73 20.55 0 -0.01 -0.01 41.08 0 0.01 0.01 20.53 0 39.98 38.66 -20.53 0 0.07 0.07 -41 0zm-328.7 0l-20.62 0 -40.07 -38.73 20.55 0 -0.01 -0.01 205.44 0 0.01 0.01 20.53 0 39.98 38.66 -20.53 0 0.07 0.07 -205.35 0zm-164.35 0l-20.62 0 -40.07 -38.73 20.55 0 -0.01 -0.01 41.08 0 0.01 0.01 20.53 0 39.98 38.66 -20.53 0 0.07 0.07 -41 0zm-328.7 0l-20.62 0 -40.07 -38.73 20.55 0 -0.01 -0.01 205.44 0 0.01 0.01 20.53 0 39.98 38.66 -20.53 0 0.07 0.07 -205.35 0zm-164.35 0l-20.62 0 -40.07 -38.73 20.55 0 -0.01 -0.01 41.08 0 0.01 0.01 20.53 0 39.98 38.66 -20.53 0 0.07 0.07 -41 0zm-328.7 0l-20.62 0 -40.07 -38.73 20.55 0 -0.01 -0.01 205.44 0 0.01 0.01 20.53 0 39.98 38.66 -20.53 0 0.07 0.07 -205.35 0zm-164.35 0l-20.62 0 -40.07 -38.73 20.55 0 -0.01 -0.01 41.08 0 0.01 0.01 20.53 0 39.98 38.66 -20.53 0 0.07 0.07 -41 0zm-328.7 0l-20.62 0 -40.07 -38.73 20.55 0 -0.01 -0.01 205.44 0 0.01 0.01 20.53 0 39.98 38.66 -20.53 0 0.07 0.07 -205.35 0zm-164.35 0l-20.62 0 -40.07 -38.73 20.55 0 -0.01 -0.01 41.08 0 0.01 0.01 20.53 0 39.98 38.66 -20.53 0 0.07 0.07 -41 0zm-328.72 0l-20.62 0 -40.07 -38.73 20.55 0 -0.01 -0.01 205.45 0 0.01 0.01 20.53 0 39.98 38.66 -20.53 0 0.07 0.07 -205.36 0zm-164.36 0l-20.62 0 -40.07 -38.73 20.55 0 -0.01 -0.01 41.08 0 0.01 0.01 20.53 0 39.98 38.66 -20.53 0 0.07 0.07 -41 0zm-247.4 0l-57.39 0 0 -38.74 141.38 0 0.01 0.01 20.53 0 39.98 38.66 -20.53 0 0.07 0.07 -124.05 0zm-57.39 -127.12l0 -13.92 57.39 27.04 0 13.87 0 0.05 0 27.63 0 0.05 0 13.87 -57.28 -26.99 0 -13.87 -0.1 -0.05 0 -27.68zm0 -221.9l0 -13.92 57.39 27.04 0 13.87 0 0.05 0 138.59 0 0.05 0 13.87 -57.28 -26.99 0 -13.87 -0.1 -0.05 0 -138.64zm0 -110.95l0 -13.92 57.39 27.04 0 13.87 0 0.05 0 27.63 0 0.05 0 13.87 -57.28 -26.99 0 -13.87 -0.1 -0.05 0 -27.68zm0 -221.9l0 -13.92 57.39 27.04 0 13.87 0 0.05 0 138.59 0 0.05 0 13.87 -57.28 -26.99 0 -13.87 -0.1 -0.05 0 -138.64zm0 -110.95l0 -13.92 57.39 27.04 0 13.87 0 0.05 0 27.63 0 0.05 0 13.87 -57.28 -26.99 0 -13.87 -0.1 -0.05 0 -27.68zm0 -221.9l0 -13.92 57.39 27.04 0 13.87 0 0.05 0 138.59 0 0.05 0 13.87 -57.28 -26.99 0 -13.87 -0.1 -0.05 0 -138.64zm0 -110.95l0 -13.92 57.39 27.04 0 13.87 0 0.05 0 27.63 0 0.05 0 13.87 -57.28 -26.99 0 -13.87 -0.1 -0.05 0 -27.68zm0 -221.92l0 -13.92 57.39 27.04 0 13.87 0 0.05 0 138.6 0 0.05 0 13.87 -57.28 -26.99 0 -13.87 -0.1 -0.05 0 -138.65zm0 -110.96l0 -13.92 57.39 27.04 0 13.87 0 0.05 0 27.63 0 0.05 0 13.87 -57.28 -26.99 0 -13.87 -0.1 -0.05 0 -27.68zm0 -221.93l0 -13.92 57.39 27.04 0 13.87 0 0.05 0 138.61 0 0.05 0 13.87 -57.28 -26.99 0 -13.87 -0.1 -0.05 0 -138.66z"/>
  </g>
 </g>
</svg>
