<?xml version="1.0" encoding="UTF-8"?>
<!DOCTYPE svg PUBLIC "-//W3C//DTD SVG 1.1//EN" "http://www.w3.org/Graphics/SVG/1.1/DTD/svg11.dtd">
<!-- Creator: CorelDRAW -->
<svg xmlns="http://www.w3.org/2000/svg" xml:space="preserve" width="140.676mm" height="25.0592mm" version="1.1" style="shape-rendering:geometricPrecision; text-rendering:geometricPrecision; image-rendering:optimizeQuality; fill-rule:evenodd; clip-rule:evenodd"
viewBox="0 0 12203.27 2173.82"
 xmlns:xlink="http://www.w3.org/1999/xlink"
 xmlns:xodm="http://www.corel.com/coreldraw/odm/2003">
 <defs>
  <style type="text/css">
   <![CDATA[
    .fil1 {fill:black}
    .fil0 {fill:white}
   ]]>
  </style>
 </defs>
 <g id="Layer_x0020_1">
  <metadata id="CorelCorpID_0Corel-Layer"/>
  <g>
   <polygon class="fil0" points="1136.87,103.85 11066.41,103.85 12049.45,1086.9 12049.45,1086.92 11066.41,2069.97 1136.87,2069.97 153.82,1086.92 153.82,1086.9 "/>
   <path id="_1" class="fil1" d="M1029.88 0.45l9929.54 0 113.57 0 106.6 106.6 983.05 983.05 40.56 40.56 0 30.14 0 0.02 0 9.85 -7.89 7.89 -983.05 983.05 -11.75 11.75 -27.12 0 -9929.54 0 -113.57 0 -106.6 -106.6 -983.05 -983.05 -40.56 -40.56 0 -30.14 0 -0.02 0 -9.85 7.89 -7.89 983.05 -983.05 11.75 -11.75 27.12 0zm106.99 103.4l9929.54 0 983.05 983.05 0 0.02 -983.05 983.05 -9929.54 0 -983.05 -983.05 0 -0.02 983.05 -983.05z"/>
  </g>
  <g>
   <polygon class="fil0" points="1164.38,237.78 11038.88,237.78 11888,1086.9 11888,1086.91 11038.88,1936.03 1164.38,1936.03 315.27,1086.91 315.27,1086.9 "/>
   <path id="_1_3" class="fil1" d="M1164.32 237.85l0.07 -0.07 10.11 0 196.31 0 20.72 0 40.28 38.93 -20.65 0 0.01 0.01 -196.39 0 -69.45 69.45 -0.01 -0.01 -9 9 -54.69 -34.46 9 -9 -0.1 -0.06 63.71 -63.71 10.08 -10.08zm371.7 -0.07l20.72 0 40.28 38.93 -20.65 0 0.01 0.01 -41.3 0 -0.01 -0.01 -20.64 0 -40.19 -38.86 20.64 0 -0.07 -0.07 41.21 0zm330.41 0l20.72 0 40.28 38.93 -20.65 0 0.01 0.01 -206.51 0 -0.01 -0.01 -20.64 0 -40.19 -38.86 20.64 0 -0.07 -0.07 206.42 0zm165.2 0l20.72 0 40.28 38.93 -20.65 0 0.01 0.01 -41.3 0 -0.01 -0.01 -20.64 0 -40.19 -38.86 20.64 0 -0.07 -0.07 41.21 0zm330.41 0l20.72 0 40.28 38.93 -20.65 0 0.01 0.01 -206.51 0 -0.01 -0.01 -20.64 0 -40.19 -38.86 20.64 0 -0.07 -0.07 206.42 0zm165.2 0l20.72 0 40.28 38.93 -20.65 0 0.01 0.01 -41.3 0 -0.01 -0.01 -20.64 0 -40.19 -38.86 20.64 0 -0.07 -0.07 41.21 0zm330.41 0l20.72 0 40.28 38.93 -20.65 0 0.01 0.01 -206.51 0 -0.01 -0.01 -20.64 0 -40.19 -38.86 20.64 0 -0.07 -0.07 206.42 0zm165.2 0l20.72 0 40.28 38.93 -20.65 0 0.01 0.01 -41.3 0 -0.01 -0.01 -20.64 0 -40.19 -38.86 20.64 0 -0.07 -0.07 41.21 0zm330.41 0l20.72 0 40.28 38.93 -20.65 0 0.01 0.01 -206.51 0 -0.01 -0.01 -20.64 0 -40.19 -38.86 20.64 0 -0.07 -0.07 206.42 0zm165.2 0l20.72 0 40.28 38.93 -20.65 0 0.01 0.01 -41.3 0 -0.01 -0.01 -20.64 0 -40.19 -38.86 20.64 0 -0.07 -0.07 41.21 0zm330.41 0l20.72 0 40.28 38.93 -20.65 0 0.01 0.01 -206.51 0 -0.01 -0.01 -20.64 0 -40.19 -38.86 20.64 0 -0.07 -0.07 206.42 0zm165.2 0l20.72 0 40.28 38.93 -20.65 0 0.01 0.01 -41.3 0 -0.01 -0.01 -20.64 0 -40.19 -38.86 20.64 0 -0.07 -0.07 41.21 0zm330.41 0l20.72 0 40.28 38.93 -20.65 0 0.01 0.01 -206.51 0 -0.01 -0.01 -20.64 0 -40.19 -38.86 20.64 0 -0.07 -0.07 206.42 0zm165.21 0l20.72 0 40.28 38.93 -20.65 0 0.01 0.01 -41.3 0 -0.01 -0.01 -20.64 0 -40.19 -38.86 20.64 0 -0.07 -0.07 41.21 0zm330.42 0l20.72 0 40.28 38.93 -20.65 0 0.01 0.01 -206.51 0 -0.01 -0.01 -20.64 0 -40.19 -38.86 20.64 0 -0.07 -0.07 206.42 0zm165.21 0l20.72 0 40.28 38.93 -20.65 0 0.01 0.01 -41.3 0 -0.01 -0.01 -20.64 0 -40.19 -38.86 20.64 0 -0.07 -0.07 41.21 0zm330.42 0l20.72 0 40.28 38.93 -20.65 0 0.01 0.01 -206.51 0 -0.01 -0.01 -20.64 0 -40.19 -38.86 20.64 0 -0.07 -0.07 206.42 0zm165.21 0l20.72 0 40.28 38.93 -20.65 0 0.01 0.01 -41.3 0 -0.01 -0.01 -20.64 0 -40.19 -38.86 20.64 0 -0.07 -0.07 41.21 0zm330.42 0l20.72 0 40.28 38.93 -20.65 0 0.01 0.01 -206.51 0 -0.01 -0.01 -20.64 0 -40.19 -38.86 20.64 0 -0.07 -0.07 206.42 0zm165.21 0l20.72 0 40.28 38.93 -20.65 0 0.01 0.01 -41.3 0 -0.01 -0.01 -20.64 0 -40.19 -38.86 20.64 0 -0.07 -0.07 41.21 0zm330.42 0l20.72 0 40.28 38.93 -20.65 0 0.01 0.01 -206.51 0 -0.01 -0.01 -20.64 0 -40.19 -38.86 20.64 0 -0.07 -0.07 206.42 0zm165.21 0l20.72 0 40.28 38.93 -20.65 0 0.01 0.01 -41.3 0 -0.01 -0.01 -20.64 0 -40.19 -38.86 20.64 0 -0.07 -0.07 41.21 0zm330.42 0l20.72 0 40.28 38.93 -20.65 0 0.01 0.01 -206.51 0 -0.01 -0.01 -20.64 0 -40.19 -38.86 20.64 0 -0.07 -0.07 206.42 0zm165.21 0l20.72 0 40.28 38.93 -20.65 0 0.01 0.01 -41.3 0 -0.01 -0.01 -20.64 0 -40.19 -38.86 20.64 0 -0.07 -0.07 41.21 0zm330.42 0l20.72 0 40.28 38.93 -20.65 0 0.01 0.01 -206.51 0 -0.01 -0.01 -20.64 0 -40.19 -38.86 20.64 0 -0.07 -0.07 206.42 0zm165.21 0l20.72 0 40.28 38.93 -20.65 0 0.01 0.01 -41.3 0 -0.01 -0.01 -20.64 0 -40.19 -38.86 20.64 0 -0.07 -0.07 41.21 0zm330.43 0l20.72 0 40.28 38.93 -20.65 0 0.01 0.01 -206.52 0 -0.01 -0.01 -20.64 0 -40.19 -38.86 20.64 0 -0.07 -0.07 206.43 0zm165.21 0l20.72 0 40.28 38.93 -20.65 0 0.01 0.01 -41.3 0 -0.01 -0.01 -20.64 0 -40.19 -38.86 20.64 0 -0.07 -0.07 41.21 0zm330.43 0l20.72 0 40.28 38.93 -20.65 0 0.01 0.01 -206.52 0 -0.01 -0.01 -20.64 0 -40.19 -38.86 20.64 0 -0.07 -0.07 206.43 0zm165.21 0l20.72 0 40.28 38.93 -20.65 0 0.01 0.01 -41.3 0 -0.01 -0.01 -20.64 0 -40.19 -38.86 20.64 0 -0.07 -0.07 41.21 0zm330.43 0l20.72 0 40.28 38.93 -20.65 0 0.01 0.01 -206.52 0 -0.01 -0.01 -20.64 0 -40.19 -38.86 20.64 0 -0.07 -0.07 206.43 0zm165.21 0l20.72 0 40.28 38.93 -20.65 0 0.01 0.01 -41.3 0 -0.01 -0.01 -20.64 0 -40.19 -38.86 20.64 0 -0.07 -0.07 41.21 0zm330.43 0l20.72 0 40.28 38.93 -20.65 0 0.01 0.01 -206.52 0 -0.01 -0.01 -20.64 0 -40.19 -38.86 20.64 0 -0.07 -0.07 206.43 0zm165.21 0l20.72 0 40.28 38.93 -20.65 0 0.01 0.01 -41.3 0 -0.01 -0.01 -20.64 0 -40.19 -38.86 20.64 0 -0.07 -0.07 41.21 0zm330.43 0l20.72 0 40.28 38.93 -20.65 0 0.01 0.01 -206.52 0 -0.01 -0.01 -20.64 0 -40.19 -38.86 20.64 0 -0.07 -0.07 206.43 0zm165.21 0l20.72 0 40.28 38.93 -20.65 0 0.01 0.01 -41.3 0 -0.01 -0.01 -20.64 0 -40.19 -38.86 20.64 0 -0.07 -0.07 41.21 0zm330.44 0l20.72 0 40.28 38.93 -20.65 0 0.01 0.01 -206.53 0 -0.01 -0.01 -20.64 0 -40.19 -38.86 20.64 0 -0.07 -0.07 206.44 0zm165.21 0l20.72 0 40.28 38.93 -20.65 0 0.01 0.01 -41.3 0 -0.01 -0.01 -20.64 0 -40.19 -38.86 20.64 0 -0.07 -0.07 41.21 0zm330.45 0l20.72 0 40.28 38.93 -20.65 0 0.01 0.01 -206.53 0 -0.01 -0.01 -20.64 0 -40.19 -38.86 20.64 0 -0.07 -0.07 206.44 0zm165.23 0l20.72 0 40.28 38.93 -20.65 0 0.01 0.01 -41.31 0 -0.01 -0.01 -20.64 0 -40.19 -38.86 20.64 0 -0.07 -0.07 41.22 0zm316.36 230.5l19.53 19.53 -42.58 -1.25 -19.46 -19.46 -0.07 -0.07 -194.48 -194.48 -0.07 -0.07 -19.46 -19.46 42.5 1.25 19.46 19.46 0.08 0 194.55 194.55zm155.69 155.69l19.53 19.53 -42.58 -1.25 -19.46 -19.46 -0.07 -0.07 -38.78 -38.78 -0.07 -0.07 -19.46 -19.46 42.5 1.25 19.46 19.46 0.08 0 38.85 38.85zm311.39 311.39l19.53 19.53 -42.58 -1.25 -19.46 -19.46 -0.07 -0.07 -194.48 -194.48 -0.07 -0.07 -19.46 -19.46 42.5 1.25 19.46 19.46 0.08 0 194.55 194.55zm151.54 151.54l0 0.01 -10.96 10.96 -9.36 -5.9 -22.26 -6.32 -20.85 -20.85 -2.32 -1.47 0.43 -0.43 -11.88 -11.88 -0.07 -0.07 -19.46 -19.46 42.5 1.25 19.46 19.46 0.08 0 34.69 34.69zm-145.95 145.96l-9.04 9.04 -54.79 -34.53 9 -9 -0.01 -0.01 90.03 -90.03 0.01 0.01 9 -9 54.69 34.46 -9 9 0.1 0.06 -89.99 89.99zm-72.01 72.01l-9.04 9.04 -54.79 -34.53 9 -9 -0.01 -0.01 18 -18 0.01 0.01 9 -9 54.69 34.46 -9 9 0.1 0.06 -17.97 17.97zm-144.04 144.04l-9.04 9.04 -54.79 -34.53 9 -9 -0.01 -0.01 90.03 -90.03 0.01 0.01 9 -9 54.69 34.46 -9 9 0.1 0.06 -89.99 89.99zm-72.02 72.02l-9.04 9.04 -54.79 -34.53 9 -9 -0.01 -0.01 18 -18 0.01 0.01 9 -9 54.69 34.46 -9 9 0.1 0.06 -17.97 17.97zm-144.04 144.04l-9.04 9.04 -54.79 -34.53 9 -9 -0.01 -0.01 90.03 -90.03 0.01 0.01 9 -9 54.69 34.46 -9 9 0.1 0.06 -89.99 89.99zm-72.02 72.02l-9.04 9.04 -54.79 -34.53 9 -9 -0.01 -0.01 18 -18 0.01 0.01 9 -9 54.69 34.46 -9 9 0.1 0.06 -17.97 17.97zm-144.06 144.06l-9.04 9.04 -54.79 -34.53 9 -9 -0.01 -0.01 90.04 -90.04 0.01 0.01 9 -9 54.69 34.46 -9 9 0.1 0.06 -90.01 90.01zm-54.97 54.97l-10.11 0 -29.01 0 -20.72 0 -40.28 -38.93 20.65 0 -0.01 -0.01 29.1 0 5.5 -5.5 54.69 34.46 -9 9 0.1 0.06 -0.91 0.91zm-369.54 0l-20.72 0 -40.28 -38.93 20.65 0 -0.01 -0.01 206.51 0 0.01 0.01 20.64 0 40.19 38.86 -20.64 0 0.07 0.07 -206.42 0zm-165.2 0l-20.72 0 -40.28 -38.93 20.65 0 -0.01 -0.01 41.3 0 0.01 0.01 20.64 0 40.19 38.86 -20.64 0 0.07 0.07 -41.21 0zm-330.41 0l-20.72 0 -40.28 -38.93 20.65 0 -0.01 -0.01 206.51 0 0.01 0.01 20.64 0 40.19 38.86 -20.64 0 0.07 0.07 -206.42 0zm-165.2 0l-20.72 0 -40.28 -38.93 20.65 0 -0.01 -0.01 41.3 0 0.01 0.01 20.64 0 40.19 38.86 -20.64 0 0.07 0.07 -41.21 0zm-330.41 0l-20.72 0 -40.28 -38.93 20.65 0 -0.01 -0.01 206.51 0 0.01 0.01 20.64 0 40.19 38.86 -20.64 0 0.07 0.07 -206.42 0zm-165.2 0l-20.72 0 -40.28 -38.93 20.65 0 -0.01 -0.01 41.3 0 0.01 0.01 20.64 0 40.19 38.86 -20.64 0 0.07 0.07 -41.21 0zm-330.41 0l-20.72 0 -40.28 -38.93 20.65 0 -0.01 -0.01 206.51 0 0.01 0.01 20.64 0 40.19 38.86 -20.64 0 0.07 0.07 -206.42 0zm-165.2 0l-20.72 0 -40.28 -38.93 20.65 0 -0.01 -0.01 41.3 0 0.01 0.01 20.64 0 40.19 38.86 -20.64 0 0.07 0.07 -41.21 0zm-330.41 0l-20.72 0 -40.28 -38.93 20.65 0 -0.01 -0.01 206.51 0 0.01 0.01 20.64 0 40.19 38.86 -20.64 0 0.07 0.07 -206.42 0zm-165.2 0l-20.72 0 -40.28 -38.93 20.65 0 -0.01 -0.01 41.3 0 0.01 0.01 20.64 0 40.19 38.86 -20.64 0 0.07 0.07 -41.21 0zm-330.41 0l-20.72 0 -40.28 -38.93 20.65 0 -0.01 -0.01 206.51 0 0.01 0.01 20.64 0 40.19 38.86 -20.64 0 0.07 0.07 -206.42 0zm-165.2 0l-20.72 0 -40.28 -38.93 20.65 0 -0.01 -0.01 41.3 0 0.01 0.01 20.64 0 40.19 38.86 -20.64 0 0.07 0.07 -41.21 0zm-330.42 0l-20.72 0 -40.28 -38.93 20.65 0 -0.01 -0.01 206.51 0 0.01 0.01 20.64 0 40.19 38.86 -20.64 0 0.07 0.07 -206.42 0zm-165.21 0l-20.72 0 -40.28 -38.93 20.65 0 -0.01 -0.01 41.3 0 0.01 0.01 20.64 0 40.19 38.86 -20.64 0 0.07 0.07 -41.21 0zm-330.42 0l-20.72 0 -40.28 -38.93 20.65 0 -0.01 -0.01 206.51 0 0.01 0.01 20.64 0 40.19 38.86 -20.64 0 0.07 0.07 -206.42 0zm-165.21 0l-20.72 0 -40.28 -38.93 20.65 0 -0.01 -0.01 41.3 0 0.01 0.01 20.64 0 40.19 38.86 -20.64 0 0.07 0.07 -41.21 0zm-330.42 0l-20.72 0 -40.28 -38.93 20.65 0 -0.01 -0.01 206.51 0 0.01 0.01 20.64 0 40.19 38.86 -20.64 0 0.07 0.07 -206.42 0zm-165.21 0l-20.72 0 -40.28 -38.93 20.65 0 -0.01 -0.01 41.3 0 0.01 0.01 20.64 0 40.19 38.86 -20.64 0 0.07 0.07 -41.21 0zm-330.42 0l-20.72 0 -40.28 -38.93 20.65 0 -0.01 -0.01 206.51 0 0.01 0.01 20.64 0 40.19 38.86 -20.64 0 0.07 0.07 -206.42 0zm-165.21 0l-20.72 0 -40.28 -38.93 20.65 0 -0.01 -0.01 41.3 0 0.01 0.01 20.64 0 40.19 38.86 -20.64 0 0.07 0.07 -41.21 0zm-330.42 0l-20.72 0 -40.28 -38.93 20.65 0 -0.01 -0.01 206.51 0 0.01 0.01 20.64 0 40.19 38.86 -20.64 0 0.07 0.07 -206.42 0zm-165.21 0l-20.72 0 -40.28 -38.93 20.65 0 -0.01 -0.01 41.3 0 0.01 0.01 20.64 0 40.19 38.86 -20.64 0 0.07 0.07 -41.21 0zm-330.42 0l-20.72 0 -40.28 -38.93 20.65 0 -0.01 -0.01 206.51 0 0.01 0.01 20.64 0 40.19 38.86 -20.64 0 0.07 0.07 -206.42 0zm-165.21 0l-20.72 0 -40.28 -38.93 20.65 0 -0.01 -0.01 41.3 0 0.01 0.01 20.64 0 40.19 38.86 -20.64 0 0.07 0.07 -41.21 0zm-330.43 0l-20.72 0 -40.28 -38.93 20.65 0 -0.01 -0.01 206.52 0 0.01 0.01 20.64 0 40.19 38.86 -20.64 0 0.07 0.07 -206.43 0zm-165.21 0l-20.72 0 -40.28 -38.93 20.65 0 -0.01 -0.01 41.3 0 0.01 0.01 20.64 0 40.19 38.86 -20.64 0 0.07 0.07 -41.21 0zm-330.43 0l-20.72 0 -40.28 -38.93 20.65 0 -0.01 -0.01 206.52 0 0.01 0.01 20.64 0 40.19 38.86 -20.64 0 0.07 0.07 -206.43 0zm-165.21 0l-20.72 0 -40.28 -38.93 20.65 0 -0.01 -0.01 41.3 0 0.01 0.01 20.64 0 40.19 38.86 -20.64 0 0.07 0.07 -41.21 0zm-330.43 0l-20.72 0 -40.28 -38.93 20.65 0 -0.01 -0.01 206.52 0 0.01 0.01 20.64 0 40.19 38.86 -20.64 0 0.07 0.07 -206.43 0zm-165.21 0l-20.72 0 -40.28 -38.93 20.65 0 -0.01 -0.01 41.3 0 0.01 0.01 20.64 0 40.19 38.86 -20.64 0 0.07 0.07 -41.21 0zm-330.43 0l-20.72 0 -40.28 -38.93 20.65 0 -0.01 -0.01 206.52 0 0.01 0.01 20.64 0 40.19 38.86 -20.64 0 0.07 0.07 -206.43 0zm-165.21 0l-20.72 0 -40.28 -38.93 20.65 0 -0.01 -0.01 41.3 0 0.01 0.01 20.64 0 40.19 38.86 -20.64 0 0.07 0.07 -41.21 0zm-330.43 0l-20.72 0 -40.28 -38.93 20.65 0 -0.01 -0.01 206.52 0 0.01 0.01 20.64 0 40.19 38.86 -20.64 0 0.07 0.07 -206.43 0zm-165.21 0l-20.72 0 -40.28 -38.93 20.65 0 -0.01 -0.01 41.3 0 0.01 0.01 20.64 0 40.19 38.86 -20.64 0 0.07 0.07 -41.21 0zm-330.43 0l-20.72 0 -40.28 -38.93 20.65 0 -0.01 -0.01 206.52 0 0.01 0.01 20.64 0 40.19 38.86 -20.64 0 0.07 0.07 -206.43 0zm-165.21 0l-20.72 0 -40.28 -38.93 20.65 0 -0.01 -0.01 41.3 0 0.01 0.01 20.64 0 40.19 38.86 -20.64 0 0.07 0.07 -41.21 0zm-330.44 0l-20.72 0 -40.28 -38.93 20.65 0 -0.01 -0.01 206.53 0 0.01 0.01 20.64 0 40.19 38.86 -20.64 0 0.07 0.07 -206.44 0zm-165.22 0l-20.72 0 -40.28 -38.93 20.65 0 -0.01 -0.01 41.3 0 0.01 0.01 20.64 0 40.19 38.86 -20.64 0 0.07 0.07 -41.21 0zm-330.46 0l-20.72 0 -40.28 -38.93 20.65 0 -0.01 -0.01 206.54 0 0.01 0.01 20.64 0 40.19 38.86 -20.64 0 0.07 0.07 -206.45 0zm-160.78 -72.83l-19.53 -19.53 42.58 1.25 19.46 19.46 0.07 0.07 38.78 38.78 0.07 0.07 19.46 19.46 -42.5 -1.25 -19.46 -19.46 -0.08 0 -38.85 -38.85zm-311.39 -311.39l-19.53 -19.53 42.58 1.25 19.46 19.46 0.07 0.07 194.48 194.48 0.07 0.07 19.46 19.46 -42.5 -1.25 -19.46 -19.46 -0.08 0 -194.55 -194.55zm-155.69 -155.69l-19.53 -19.53 42.58 1.25 19.46 19.46 0.07 0.07 38.78 38.78 0.07 0.07 19.46 19.46 -42.5 -1.25 -19.46 -19.46 -0.08 0 -38.85 -38.85zm-309.2 -309.2l0 -0.01 10.05 -10.05 5.99 3.77 26.54 7.53 192.29 192.29 0.07 0.07 19.46 19.46 -42.5 -1.25 -19.46 -19.46 -0.08 0 -192.36 -192.36zm73.02 -73.02l9.04 -9.04 54.79 34.53 -9 9 0.01 0.01 -18 18 -0.01 -0.01 -9 9 -54.69 -34.46 9 -9 -0.1 -0.06 17.97 -17.97zm144.04 -144.04l9.04 -9.04 54.79 34.53 -9 9 0.01 0.01 -90.03 90.03 -0.01 -0.01 -9 9 -54.69 -34.46 9 -9 -0.1 -0.06 89.99 -89.99zm72.02 -72.02l9.04 -9.04 54.79 34.53 -9 9 0.01 0.01 -18 18 -0.01 -0.01 -9 9 -54.69 -34.46 9 -9 -0.1 -0.06 17.97 -17.97zm144.04 -144.04l9.04 -9.04 54.79 34.53 -9 9 0.01 0.01 -90.03 90.03 -0.01 -0.01 -9 9 -54.69 -34.46 9 -9 -0.1 -0.06 89.99 -89.99zm72.02 -72.02l9.04 -9.04 54.79 34.53 -9 9 0.01 0.01 -18 18 -0.01 -0.01 -9 9 -54.69 -34.46 9 -9 -0.1 -0.06 17.97 -17.97zm144.05 -144.05l9.04 -9.04 54.79 34.53 -9 9 0.01 0.01 -90.04 90.04 -0.01 -0.01 -9 9 -54.69 -34.46 9 -9 -0.1 -0.06 90 -90zm72.02 -72.02l9.04 -9.04 54.79 34.53 -9 9 0.01 0.01 -18 18 -0.01 -0.01 -9 9 -54.69 -34.46 9 -9 -0.1 -0.06 17.97 -17.97z"/>
  </g>
 </g>
</svg>
