<?xml version="1.0" encoding="UTF-8"?>
<!DOCTYPE svg PUBLIC "-//W3C//DTD SVG 1.1//EN" "http://www.w3.org/Graphics/SVG/1.1/DTD/svg11.dtd">
<!-- Creator: CorelDRAW -->
<svg xmlns="http://www.w3.org/2000/svg" xml:space="preserve" width="140.676mm" height="25.0592mm" version="1.1" style="shape-rendering:geometricPrecision; text-rendering:geometricPrecision; image-rendering:optimizeQuality; fill-rule:evenodd; clip-rule:evenodd"
viewBox="0 0 12256.07 2183.23"
 xmlns:xlink="http://www.w3.org/1999/xlink"
 xmlns:xodm="http://www.corel.com/coreldraw/odm/2003">
 <defs>
  <style type="text/css">
   <![CDATA[
    .fil1 {fill:black}
    .fil0 {fill:white}
   ]]>
  </style>
 </defs>
 <g id="Layer_x0020_1">
  <metadata id="CorelCorpID_0Corel-Layer"/>
  <g>
   <path class="fil0" d="M1141.79 104.3l9972.5 0c0,543.01 444.29,987.3 987.3,987.3l0 0.02c-543.01,0 -987.3,444.29 -987.3,987.3l-9972.5 0c0,-543.01 -444.29,-987.3 -987.3,-987.3l0 -0.02c543.01,0 987.3,-444.29 987.3,-987.3z"/>
   <path id="_1" class="fil1" d="M1034.34 0.45l9972.5 0 261.8 0 0 176.83c0,252.1 95.5,473.66 249.35,627.51 112.88,112.88 280.69,182.96 476.15,182.96l261.86 0 0 178.07 0 0.02 0 29.63 -46.97 0c-253.34,0 -486.58,106.56 -658.24,278.22 -174.09,174.09 -282.16,414.18 -282.16,678.22l0 30.87 -46.9 0 -9972.5 0 -261.8 0 0 -176.83c0,-252.11 -95.5,-473.66 -249.35,-627.51 -112.88,-112.88 -280.69,-182.96 -476.15,-182.96l-261.86 0 0 -178.07 0 -0.02 0 -29.63 46.97 0c253.34,0 486.58,-106.56 658.24,-278.22 174.09,-174.09 282.16,-414.19 282.16,-678.22l0 -30.87 46.9 0zm107.45 103.85l9972.5 0c0,543.01 444.29,987.3 987.3,987.3l0 0.02c-543.01,0 -987.3,444.29 -987.3,987.3l-9972.5 0c0,-543.01 -444.29,-987.3 -987.3,-987.3l0 -0.02c543.01,0 987.3,-444.29 987.3,-987.3z"/>
  </g>
  <g>
   <path class="fil0" d="M1263.73 206.21l9728.6 0c0,486.96 398.44,885.39 885.4,885.39l0 0.02c-486.96,0 -885.4,398.43 -885.4,885.39l-9728.6 0c0,-486.96 -398.43,-885.39 -885.39,-885.39l0 -0.02c486.96,0 885.39,-398.43 885.39,-885.39z"/>
   <path id="_1_2" class="fil1" d="M1304.17 245.31l-20.73 0 -19.96 -19.3c0.15,-6.57 0.25,-13.14 0.25,-19.73l0.07 0 -0.07 -0.07 207.32 0 20.81 0 40.45 39.1 -20.74 0 0.01 0.01 -207.4 0 -0.01 -0.01zm332.8 -39.1l20.81 0 40.45 39.1 -20.74 0 0.01 0.01 -41.48 0 -0.01 -0.01 -20.73 0 -40.36 -39.03 20.73 0 -0.07 -0.07 41.39 0zm331.84 0l20.81 0 40.45 39.1 -20.74 0 0.01 0.01 -207.4 0 -0.01 -0.01 -20.73 0 -40.36 -39.03 20.73 0 -0.07 -0.07 207.32 0zm165.92 0l20.81 0 40.45 39.1 -20.74 0 0.01 0.01 -41.48 0 -0.01 -0.01 -20.73 0 -40.36 -39.03 20.73 0 -0.07 -0.07 41.39 0zm331.84 0l20.81 0 40.45 39.1 -20.74 0 0.01 0.01 -207.4 0 -0.01 -0.01 -20.73 0 -40.36 -39.03 20.73 0 -0.07 -0.07 207.32 0zm165.92 0l20.81 0 40.45 39.1 -20.74 0 0.01 0.01 -41.48 0 -0.01 -0.01 -20.73 0 -40.36 -39.03 20.73 0 -0.07 -0.07 41.39 0zm331.84 0l20.81 0 40.45 39.1 -20.74 0 0.01 0.01 -207.4 0 -0.01 -0.01 -20.73 0 -40.36 -39.03 20.73 0 -0.07 -0.07 207.32 0zm165.92 0l20.81 0 40.45 39.1 -20.74 0 0.01 0.01 -41.48 0 -0.01 -0.01 -20.73 0 -40.36 -39.03 20.73 0 -0.07 -0.07 41.39 0zm331.84 0l20.81 0 40.45 39.1 -20.74 0 0.01 0.01 -207.4 0 -0.01 -0.01 -20.73 0 -40.36 -39.03 20.73 0 -0.07 -0.07 207.32 0zm165.92 0l20.81 0 40.45 39.1 -20.74 0 0.01 0.01 -41.48 0 -0.01 -0.01 -20.73 0 -40.36 -39.03 20.73 0 -0.07 -0.07 41.39 0zm331.84 0l20.81 0 40.45 39.1 -20.74 0 0.01 0.01 -207.4 0 -0.01 -0.01 -20.73 0 -40.36 -39.03 20.73 0 -0.07 -0.07 207.32 0zm165.92 0l20.81 0 40.45 39.1 -20.74 0 0.01 0.01 -41.48 0 -0.01 -0.01 -20.73 0 -40.36 -39.03 20.73 0 -0.07 -0.07 41.39 0zm331.84 0l20.81 0 40.45 39.1 -20.74 0 0.01 0.01 -207.4 0 -0.01 -0.01 -20.73 0 -40.36 -39.03 20.73 0 -0.07 -0.07 207.32 0zm165.93 0l20.81 0 40.45 39.1 -20.74 0 0.01 0.01 -41.48 0 -0.01 -0.01 -20.73 0 -40.36 -39.03 20.73 0 -0.07 -0.07 41.39 0zm331.85 0l20.81 0 40.45 39.1 -20.74 0 0.01 0.01 -207.4 0 -0.01 -0.01 -20.73 0 -40.36 -39.03 20.73 0 -0.07 -0.07 207.32 0zm165.93 0l20.81 0 40.45 39.1 -20.74 0 0.01 0.01 -41.48 0 -0.01 -0.01 -20.73 0 -40.36 -39.03 20.73 0 -0.07 -0.07 41.39 0zm331.85 0l20.81 0 40.45 39.1 -20.74 0 0.01 0.01 -207.4 0 -0.01 -0.01 -20.73 0 -40.36 -39.03 20.73 0 -0.07 -0.07 207.32 0zm165.93 0l20.81 0 40.45 39.1 -20.74 0 0.01 0.01 -41.48 0 -0.01 -0.01 -20.73 0 -40.36 -39.03 20.73 0 -0.07 -0.07 41.39 0zm331.85 0l20.81 0 40.45 39.1 -20.74 0 0.01 0.01 -207.4 0 -0.01 -0.01 -20.73 0 -40.36 -39.03 20.73 0 -0.07 -0.07 207.32 0zm165.93 0l20.81 0 40.45 39.1 -20.74 0 0.01 0.01 -41.48 0 -0.01 -0.01 -20.73 0 -40.36 -39.03 20.73 0 -0.07 -0.07 41.39 0zm331.85 0l20.81 0 40.45 39.1 -20.74 0 0.01 0.01 -207.4 0 -0.01 -0.01 -20.73 0 -40.36 -39.03 20.73 0 -0.07 -0.07 207.32 0zm165.93 0l20.81 0 40.45 39.1 -20.74 0 0.01 0.01 -41.48 0 -0.01 -0.01 -20.73 0 -40.36 -39.03 20.73 0 -0.07 -0.07 41.39 0zm331.85 0l20.81 0 40.45 39.1 -20.74 0 0.01 0.01 -207.4 0 -0.01 -0.01 -20.73 0 -40.36 -39.03 20.73 0 -0.07 -0.07 207.32 0zm165.93 0l20.81 0 40.45 39.1 -20.74 0 0.01 0.01 -41.48 0 -0.01 -0.01 -20.73 0 -40.36 -39.03 20.73 0 -0.07 -0.07 41.39 0zm331.85 0l20.81 0 40.45 39.1 -20.74 0 0.01 0.01 -207.4 0 -0.01 -0.01 -20.73 0 -40.36 -39.03 20.73 0 -0.07 -0.07 207.32 0zm165.93 0l20.81 0 40.45 39.1 -20.74 0 0.01 0.01 -41.48 0 -0.01 -0.01 -20.73 0 -40.36 -39.03 20.73 0 -0.07 -0.07 41.39 0zm331.86 0l20.81 0 40.45 39.1 -20.74 0 0.01 0.01 -207.41 0 -0.01 -0.01 -20.73 0 -40.36 -39.03 20.73 0 -0.07 -0.07 207.33 0zm165.93 0l20.81 0 40.45 39.1 -20.74 0 0.01 0.01 -41.48 0 -0.01 -0.01 -20.73 0 -40.36 -39.03 20.73 0 -0.07 -0.07 41.39 0zm331.86 0l20.81 0 40.45 39.1 -20.74 0 0.01 0.01 -207.41 0 -0.01 -0.01 -20.73 0 -40.36 -39.03 20.73 0 -0.07 -0.07 207.33 0zm165.93 0l20.81 0 40.45 39.1 -20.74 0 0.01 0.01 -41.48 0 -0.01 -0.01 -20.73 0 -40.36 -39.03 20.73 0 -0.07 -0.07 41.39 0zm331.86 0l20.81 0 40.45 39.1 -20.74 0 0.01 0.01 -207.41 0 -0.01 -0.01 -20.73 0 -40.36 -39.03 20.73 0 -0.07 -0.07 207.33 0zm165.93 0l20.81 0 40.45 39.1 -20.74 0 0.01 0.01 -41.48 0 -0.01 -0.01 -20.73 0 -40.36 -39.03 20.73 0 -0.07 -0.07 41.39 0zm331.86 0l20.81 0 40.45 39.1 -20.74 0 0.01 0.01 -207.41 0 -0.01 -0.01 -20.73 0 -40.36 -39.03 20.73 0 -0.07 -0.07 207.33 0zm165.93 0l20.81 0 40.45 39.1 -20.74 0 0.01 0.01 -41.48 0 -0.01 -0.01 -20.73 0 -40.36 -39.03 20.73 0 -0.07 -0.07 41.39 0zm331.86 0l20.81 0 40.45 39.1 -20.74 0 0.01 0.01 -207.41 0 -0.01 -0.01 -20.73 0 -40.36 -39.03 20.73 0 -0.07 -0.07 207.33 0zm165.93 0l20.81 0 40.45 39.1 -20.74 0 0.01 0.01 -41.48 0 -0.01 -0.01 -20.73 0 -40.36 -39.03 20.73 0 -0.07 -0.07 41.39 0zm331.87 0l20.81 0 40.45 39.1 -20.74 0 0.01 0.01 -207.42 0 -0.01 -0.01 -20.73 0 -40.36 -39.03 20.73 0 -0.07 -0.07 207.33 0zm165.93 0l20.81 0 40.45 39.1 -20.74 0 0.01 0.01 -41.48 0 -0.01 -0.01 -20.73 0 -40.36 -39.03 20.73 0 -0.07 -0.07 41.39 0zm331.89 0l20.81 0 14.84 14.34 28.12 12.96 0.64 14.29 0.14 0.07c0.55,11.59 1.34,23.11 2.33,34.59l0.67 8.81 -57.99 -26.25 -1.11 -14.51 -0.02 -0.01 -0.2 -2.63 -0.19 -2.54 -174.95 0 -0.01 -0.01 -20.73 0 -40.36 -39.03 20.73 0 -0.07 -0.07 207.34 0zm78.14 159.86c10.66,57.88 27.01,113.83 48.42,167.26l3.52 9.05 -56.56 -20.35 -6.49 -16.71 -0.01 0 -0.24 -0.64 -2 -5.21 -1.98 -5.23 -1.94 -5.22 -1.91 -5.24 -1.88 -5.27 -1.85 -5.26 -1.81 -5.28 -1.78 -5.29 -1.75 -5.3 -1.72 -5.31 -1.68 -5.33 -1.66 -5.32 -1.63 -5.38 -1.58 -5.36 -1.55 -5.37 -1.52 -5.38 -1.48 -5.4 -1.45 -5.4 -1.42 -5.41 -1.39 -5.44 -1.35 -5.45 -1.32 -5.43 -1.29 -5.47 -1.25 -5.47 -1.22 -5.49 -1.18 -5.48 -1.16 -5.51 -1.11 -5.52 -1.09 -5.51 -1.05 -5.54 -0.35 -1.83 -2.75 -15.28 57.57 24.47 2.74 15.23 0.15 0.06zm93.62 262.97c7.61,13.9 15.62,27.56 23.95,40.99l8.01 13.13 -53.63 -14.54 -11.07 -18.16 -0.01 0 -0.34 -0.56 -2.94 -4.85 -2.88 -4.82 -2.85 -4.84 -2.83 -4.87 -2.79 -4.87 -2.75 -4.88 -2.73 -4.89 -1.76 -3.21 0.01 0 -9.69 -17.75 54.49 16.34 9.69 17.75 0.12 0.03zm102.08 148.34c63.42,74.79 138.97,138.97 223.53,189.5l-0.01 0.01 27.98 16.81 -15.01 20.02 -28.08 -16.87 -1.93 -1.15 -5.54 -3.35 -5.37 -3.29 -5.38 -3.35 -5.4 -3.4 -5.4 -3.45 -5.31 -3.44 -5.29 -3.47 -5.23 -3.48 -5.24 -3.51 -5.3 -3.61 -5.18 -3.58 -5.12 -3.58 -5.18 -3.66 -5.03 -3.62 -5.13 -3.71 -5.08 -3.75 -4.92 -3.66 -5.03 -3.79 -4.93 -3.76 -4.83 -3.73 -4.94 -3.85 -4.89 -3.89 -4.79 -3.83 -4.83 -3.92 -4.67 -3.84 -4.64 -3.85 -4.74 -3.97 -4.69 -4 -4.66 -4.02 -4.57 -3.99 -4.53 -4 -4.5 -4.03 -4.42 -3.99 -4.49 -4.1 -4.45 -4.12 -4.36 -4.09 -4.35 -4.12 -4.3 -4.12 -4.27 -4.15 -4.29 -4.21 -4.24 -4.23 -4.13 -4.16 -4.14 -4.21 -4.15 -4.27 -4.07 -4.24 -4.04 -4.26 -4.05 -4.32 -3.94 -4.26 -3.95 -4.3 -3.97 -4.4 -3.88 -4.35 -3.85 -4.36 -3.81 -4.36 -3.79 -4.39 -3.17 -3.73 -16.32 -19.25 47.76 6.75 16.33 19.26 0.17 0.03zm395.17 268.56c20.21,6.79 40.74,12.87 61.55,18.2l19.66 5.22 22.73 36.52 -26.65 -7.07 0.01 0.01 -0.57 -0.15 -5.88 -1.58 -5.91 -1.63 -5.95 -1.68 -5.85 -1.69 -5.89 -1.73 -5.99 -1.81 -5.87 -1.83 -4.03 -1.27 39.36 31.13 -15.99 4.13 0.15 0.11c-12.96,3.43 -25.82,7.12 -38.55,11.12l-8.02 2.4 -49.16 -38.07 15.4 -4.6 -0.01 -0.01 4.16 -1.25 5.35 -1.58 5.35 -1.55 5.38 -1.52 5.39 -1.48 5.4 -1.45 0.92 -0.24 8.94 -2.31 -0.28 -0.1 0 -0.01 -27.97 -9.51 -15.13 -34.11 27.96 9.51 -0.04 -0.1zm104.38 28.03c56.78,11.54 115.47,17.62 175.53,17.62l0.02 0.02c-45.77,0 -90.77,3.51 -134.73,10.31l-6.91 0.98 -33.91 -28.92zm-167.84 87.34c-47.16,20.01 -92.25,44.01 -134.86,71.55l-3.31 2.07 -53.1 -36.35 11.68 -7.31 -0.01 0 2.67 -1.68 4.59 -2.86 4.63 -2.83 4.64 -2.81 4.66 -2.78 4.68 -2.75 4.69 -2.73 4.71 -2.71 4.74 -2.67 4.76 -2.65 4.77 -2.6 4.77 -2.59 4.81 -2.57 4.84 -2.54 4.84 -2.5 4.86 -2.48 4.88 -2.45 4.88 -2.42 4.91 -2.4 4.93 -2.37 4.94 -2.33 4.95 -2.31 5 -2.29 4.99 -2.24 5.01 -2.21 5.03 -2.2 5.04 -2.16 0.49 -0.21 13.84 -5.77 50.8 37.29 -13.84 5.78 0.1 0.07zm-193 112.55c-9.56,7.33 -18.99,14.81 -28.25,22.51l-2.69 2.17 -54.29 -35.5 10.25 -8.27 -0.01 -0.01 3.08 -2.5 4.21 -3.36 4.23 -3.35 4.25 -3.33 4.27 -3.29 0.98 -0.75 0.01 0.01 10.59 -8.03 53.81 35.59 -10.59 8.02 0.15 0.1zm-78.96 68.1c-33.07,32.06 -63.68,66.64 -91.48,103.46l-0.51 0.64 -55.95 -33.81 7.68 -9.88 -0.01 -0.01 0.54 -0.71 3.32 -4.23 3.33 -4.21 3.36 -4.2 3.4 -4.19 3.42 -4.16 3.44 -4.14 3.47 -4.12 3.48 -4.09 3.51 -4.08 3.54 -4.05 3.55 -4.03 3.58 -4.02 3.62 -4 3.63 -3.96 3.64 -3.95 3.69 -3.93 3.7 -3.9 3.73 -3.89 3.75 -3.86 3.77 -3.83 3.78 -3.81 3.82 -3.81 3.85 -3.77 2.36 -2.29 -0.01 0 9.28 -8.94 54.8 34.75 -9.24 8.9 0.16 0.1zm-127.7 155.12c-5.82,8.96 -11.47,18.05 -16.98,27.23l-2.72 4.39 -56.54 -32.98 6.55 -10.59 2.34 -3.82 2.84 -4.58 2.88 -4.57 2.91 -4.56 2.35 -3.62 6.81 -10.45 56.21 33.05 -6.79 10.41 0.13 0.08zm-49.34 86.19c-19.42,38.79 -36.05,79.18 -49.69,120.9l-2.22 6.56 -57.47 -31.02 4.07 -11.99 0.01 0 1.64 -4.88 1.78 -5.18 1.82 -5.18 1.84 -5.17 1.88 -5.14 1.9 -5.12 1.93 -5.11 1.97 -5.11 2 -5.09 2.03 -5.05 2.05 -5.05 2.09 -5.04 2.12 -5.02 2.14 -5.02 2.18 -4.98 2.2 -4.98 2.24 -4.96 2.26 -4.94 2.29 -4.92 2.32 -4.92 2.35 -4.9 2.38 -4.88 2.4 -4.86 0.6 -1.18 5.61 -11.08 56.73 32.14 -5.61 11.09 0.16 0.09zm-68.91 188.99c-2.59,10.79 -4.96,21.67 -7.14,32.61l-1.12 5.31 -57.78 -29.85 2.69 -12.67 -0.01 0 0.78 -3.69 1.18 -5.44 1.2 -5.43 1.24 -5.41 1.28 -5.41 0.03 -0.16 0.01 0.01 3.06 -12.49 57.5 30.06 -3.06 12.48 0.15 0.08zm-18.19 103.08c-3.88,33.38 -5.92,67.28 -5.92,101.65l-52.54 0 -20.81 0 -40.45 -39.1 20.74 0 -0.01 -0.01 35.21 0 0.1 -5.53 0.12 -5.76 0.17 -5.76 0.2 -5.74 0.24 -5.73 0.27 -5.72 0.31 -5.72 0.34 -5.7 0.38 -5.71 0.43 -5.68 0.44 -5.68 0.5 -5.66 0.52 -5.65 0.56 -5.65 0.6 -5.64 0.63 -5.61 0.06 -0.46 0.02 0.01 1.59 -13.23 57.73 28.75 -1.59 13.23 0.16 0.08zm-224.38 101.65l-20.81 0 -40.45 -39.1 20.74 0 -0.01 -0.01 41.48 0 0.01 0.01 20.73 0 40.36 39.03 -20.73 0 0.07 0.07 -41.39 0zm-331.84 0l-20.81 0 -40.45 -39.1 20.74 0 -0.01 -0.01 207.4 0 0.01 0.01 20.73 0 40.36 39.03 -20.73 0 0.07 0.07 -207.32 0zm-165.92 0l-20.81 0 -40.45 -39.1 20.74 0 -0.01 -0.01 41.48 0 0.01 0.01 20.73 0 40.36 39.03 -20.73 0 0.07 0.07 -41.39 0zm-331.84 0l-20.81 0 -40.45 -39.1 20.74 0 -0.01 -0.01 207.4 0 0.01 0.01 20.73 0 40.36 39.03 -20.73 0 0.07 0.07 -207.32 0zm-165.92 0l-20.81 0 -40.45 -39.1 20.74 0 -0.01 -0.01 41.48 0 0.01 0.01 20.73 0 40.36 39.03 -20.73 0 0.07 0.07 -41.39 0zm-331.84 0l-20.81 0 -40.45 -39.1 20.74 0 -0.01 -0.01 207.4 0 0.01 0.01 20.73 0 40.36 39.03 -20.73 0 0.07 0.07 -207.32 0zm-165.92 0l-20.81 0 -40.45 -39.1 20.74 0 -0.01 -0.01 41.48 0 0.01 0.01 20.73 0 40.36 39.03 -20.73 0 0.07 0.07 -41.39 0zm-331.84 0l-20.81 0 -40.45 -39.1 20.74 0 -0.01 -0.01 207.4 0 0.01 0.01 20.73 0 40.36 39.03 -20.73 0 0.07 0.07 -207.32 0zm-165.92 0l-20.81 0 -40.45 -39.1 20.74 0 -0.01 -0.01 41.48 0 0.01 0.01 20.73 0 40.36 39.03 -20.73 0 0.07 0.07 -41.39 0zm-331.84 0l-20.81 0 -40.45 -39.1 20.74 0 -0.01 -0.01 207.4 0 0.01 0.01 20.73 0 40.36 39.03 -20.73 0 0.07 0.07 -207.32 0zm-165.92 0l-20.81 0 -40.45 -39.1 20.74 0 -0.01 -0.01 41.48 0 0.01 0.01 20.73 0 40.36 39.03 -20.73 0 0.07 0.07 -41.39 0zm-331.84 0l-20.81 0 -40.45 -39.1 20.74 0 -0.01 -0.01 207.4 0 0.01 0.01 20.73 0 40.36 39.03 -20.73 0 0.07 0.07 -207.32 0zm-165.93 0l-20.81 0 -40.45 -39.1 20.74 0 -0.01 -0.01 41.48 0 0.01 0.01 20.73 0 40.36 39.03 -20.73 0 0.07 0.07 -41.39 0zm-331.85 0l-20.81 0 -40.45 -39.1 20.74 0 -0.01 -0.01 207.4 0 0.01 0.01 20.73 0 40.36 39.03 -20.73 0 0.07 0.07 -207.32 0zm-165.93 0l-20.81 0 -40.45 -39.1 20.74 0 -0.01 -0.01 41.48 0 0.01 0.01 20.73 0 40.36 39.03 -20.73 0 0.07 0.07 -41.39 0zm-331.85 0l-20.81 0 -40.45 -39.1 20.74 0 -0.01 -0.01 207.4 0 0.01 0.01 20.73 0 40.36 39.03 -20.73 0 0.07 0.07 -207.32 0zm-165.93 0l-20.81 0 -40.45 -39.1 20.74 0 -0.01 -0.01 41.48 0 0.01 0.01 20.73 0 40.36 39.03 -20.73 0 0.07 0.07 -41.39 0zm-331.85 0l-20.81 0 -40.45 -39.1 20.74 0 -0.01 -0.01 207.4 0 0.01 0.01 20.73 0 40.36 39.03 -20.73 0 0.07 0.07 -207.32 0zm-165.93 0l-20.81 0 -40.45 -39.1 20.74 0 -0.01 -0.01 41.48 0 0.01 0.01 20.73 0 40.36 39.03 -20.73 0 0.07 0.07 -41.39 0zm-331.85 0l-20.81 0 -40.45 -39.1 20.74 0 -0.01 -0.01 207.4 0 0.01 0.01 20.73 0 40.36 39.03 -20.73 0 0.07 0.07 -207.32 0zm-165.93 0l-20.81 0 -40.45 -39.1 20.74 0 -0.01 -0.01 41.48 0 0.01 0.01 20.73 0 40.36 39.03 -20.73 0 0.07 0.07 -41.39 0zm-331.85 0l-20.81 0 -40.45 -39.1 20.74 0 -0.01 -0.01 207.4 0 0.01 0.01 20.73 0 40.36 39.03 -20.73 0 0.07 0.07 -207.32 0zm-165.93 0l-20.81 0 -40.45 -39.1 20.74 0 -0.01 -0.01 41.48 0 0.01 0.01 20.73 0 40.36 39.03 -20.73 0 0.07 0.07 -41.39 0zm-331.85 0l-20.81 0 -40.45 -39.1 20.74 0 -0.01 -0.01 207.4 0 0.01 0.01 20.73 0 40.36 39.03 -20.73 0 0.07 0.07 -207.32 0zm-165.93 0l-20.81 0 -40.45 -39.1 20.74 0 -0.01 -0.01 41.48 0 0.01 0.01 20.73 0 40.36 39.03 -20.73 0 0.07 0.07 -41.39 0zm-331.86 0l-20.81 0 -40.45 -39.1 20.74 0 -0.01 -0.01 207.41 0 0.01 0.01 20.73 0 40.36 39.03 -20.73 0 0.07 0.07 -207.33 0zm-165.93 0l-20.81 0 -40.45 -39.1 20.74 0 -0.01 -0.01 41.48 0 0.01 0.01 20.73 0 40.36 39.03 -20.73 0 0.07 0.07 -41.39 0zm-331.86 0l-20.81 0 -40.45 -39.1 20.74 0 -0.01 -0.01 207.41 0 0.01 0.01 20.73 0 40.36 39.03 -20.73 0 0.07 0.07 -207.33 0zm-165.93 0l-20.81 0 -40.45 -39.1 20.74 0 -0.01 -0.01 41.48 0 0.01 0.01 20.73 0 40.36 39.03 -20.73 0 0.07 0.07 -41.39 0zm-331.86 0l-20.81 0 -40.45 -39.1 20.74 0 -0.01 -0.01 207.41 0 0.01 0.01 20.73 0 40.36 39.03 -20.73 0 0.07 0.07 -207.33 0zm-165.93 0l-20.81 0 -40.45 -39.1 20.74 0 -0.01 -0.01 41.48 0 0.01 0.01 20.73 0 40.36 39.03 -20.73 0 0.07 0.07 -41.39 0zm-331.86 0l-20.81 0 -40.45 -39.1 20.74 0 -0.01 -0.01 207.41 0 0.01 0.01 20.73 0 40.36 39.03 -20.73 0 0.07 0.07 -207.33 0zm-165.93 0l-20.81 0 -40.45 -39.1 20.74 0 -0.01 -0.01 41.48 0 0.01 0.01 20.73 0 40.36 39.03 -20.73 0 0.07 0.07 -41.39 0zm-331.86 0l-20.81 0 -40.45 -39.1 20.74 0 -0.01 -0.01 207.41 0 0.01 0.01 20.73 0 40.36 39.03 -20.73 0 0.07 0.07 -207.33 0zm-165.93 0l-20.81 0 -40.45 -39.1 20.74 0 -0.01 -0.01 41.48 0 0.01 0.01 20.73 0 40.36 39.03 -20.73 0 0.07 0.07 -41.39 0zm-331.87 0l-20.81 0 -40.45 -39.1 20.74 0 -0.01 -0.01 207.42 0 0.01 0.01 20.73 0 40.36 39.03 -20.73 0 0.07 0.07 -207.33 0zm-165.93 0l-20.81 0 -40.45 -39.1 20.74 0 -0.01 -0.01 41.48 0 0.01 0.01 20.73 0 40.36 39.03 -20.73 0 0.07 0.07 -41.39 0zm-331.88 0l-20.81 0 -40.45 -39.1 20.74 0 -0.01 -0.01 207.42 0 0.01 0.01 20.73 0 40.36 39.03 -20.73 0 0.07 0.07 -207.33 0zm-165.94 0l-20.81 0 -32.18 -31.11c-0.1,-2.67 -0.19,-5.33 -0.3,-7.99l0.17 0 -0.52 -10.19 -0.15 -0.07c-2.94,-52.76 -10.55,-104.33 -22.43,-154.29l-2.47 -10.93 57.61 23.76 3.5 15.54 0.01 0.01 1.14 5.02 1.22 5.49 1.18 5.48 1.16 5.51 1.11 5.52 1.09 5.51 1.05 5.54 1.02 5.53 0.98 5.57 0.94 5.57 0.91 5.58 0.88 5.58 0.84 5.58 0.81 5.61 0.78 5.6 0.74 5.62 0.71 5.64 0.66 5.65 0.63 5.64 0.61 5.65 0.56 5.67 0.53 5.67 0.49 5.7 0.45 5.69 0.19 2.55 18.59 0 40.36 39.03 -20.73 0 0.07 0.07 -41.4 0zm-103.35 -295.18c-4.34,-12.17 -8.93,-24.22 -13.78,-36.15l-5.5 -13.9 56.49 20.2 6.62 16.75 0.02 0.01 1.85 4.62 2.04 5.19 2 5.19 1.98 5.23 1.94 5.22 1.91 5.24 1.25 3.48 0.01 0 5.84 16.52 -56.65 -21.08 -5.81 -16.45 -0.19 -0.07zm-62.65 -137.27c-39.99,-70.89 -89.42,-135.82 -146.62,-193l-14.18 -14.51 43.66 2.09 19.15 19.59 2.6 2.64 4.18 4.3 4.03 4.21 4.05 4.26 4.04 4.32 3.95 4.26 3.97 4.35 3.94 4.36 3.88 4.35 3.82 4.32 3.82 4.37 3.82 4.43 3.75 4.41 3.75 4.45 3.68 4.43 3.66 4.45 3.65 4.5 3.56 4.45 3.57 4.5 3.55 4.55 3.49 4.52 3.48 4.55 3.46 4.58 3.4 4.57 3.38 4.59 3.34 4.61 3.34 4.64 3.28 4.63 3.23 4.62 3.24 4.69 3.21 4.71 3.16 4.71 3.1 4.69 3.09 4.7 3.08 4.76 3.05 4.77 3.02 4.79 2.95 4.77 2.93 4.77 2.94 4.85 2.88 4.82 2.85 4.84 2.81 4.84 2.8 4.87 1.65 2.92 0.01 0 10.05 17.93 -54.26 -15.92 -10 -17.85 -0.2 -0.06zm-280.1 -302.82c-17.97,-12.08 -36.41,-23.51 -55.26,-34.28l0 0 -28.3 -16.33 12.39 -21.55 28.31 16.33 3.38 1.94 5.5 3.19 5.48 3.23 5.45 3.25 5.6 3.39 5.3 3.26 5.33 3.3 5.46 3.44 5.4 3.45 5.38 3.48 5.22 3.42 5.18 3.43 2.85 1.92 26.65 18.03 -22.59 15.08 -26.66 -18.03 -0.06 0.04zm-226.68 -109.34c-78.54,-24.83 -161.74,-38.9 -247.85,-40.56l-11.94 -0.3c55.2,-0.32 109.23,-5.78 161.67,-15.88l0.83 0.18 5.94 1.36 5.95 1.4 5.8 1.41 5.96 1.47 5.96 1.52 5.86 1.54 5.88 1.58 5.91 1.63 5.95 1.68 5.85 1.69 5.89 1.73 5.99 1.81 5.87 1.83 3.14 0.99 0 0.01 27.64 8.83 17.29 34.82 -27.64 -8.83 0.03 0.08zm-31.47 -72.32c52.44,-14.44 102.99,-33.56 151.12,-56.97l6.06 -2.84 51.62 37.15 -13.25 6.2 0.01 0.01 -4.3 2.02 -4.96 2.31 -4.99 2.28 -4.99 2.25 -5.01 2.21 -5.03 2.2 -5.04 2.16 -5.06 2.13 -5.07 2.1 -5.1 2.08 -5.12 2.05 -5.13 2 -5.13 1.98 -5.17 1.96 -5.17 1.92 -5.19 1.89 -5.22 1.86 -5.22 1.83 -5.24 1.8 -5.25 1.77 -5.27 1.73 -5.28 1.71 -5.3 1.67 -5.31 1.66 -5.35 1.61 -5.35 1.58 -5.35 1.55 -5.38 1.52 -2.91 0.8 0.01 0.01 -15.86 4.3 -48.48 -38.09 15.8 -4.29 -0.17 -0.13zm219.17 -93.87c9.71,-5.81 19.28,-11.81 28.74,-17.98l6.27 -3.97 53.17 36.3 -11.6 7.36 0.01 0.01 -4.38 2.8 -4.6 2.89 -4.59 2.86 -4.61 2.83 -4.65 2.81 -0.96 0.58 -0.01 -0.01 -11.97 7.1 -52.65 -36.37 11.98 -7.1 -0.15 -0.1zm89.35 -61.22c36.51,-28.42 70.75,-59.64 102.4,-93.3l2.55 -2.65 55.27 34.6 -8.83 9.17 0.01 0 -1.79 1.86 -3.75 3.87 -3.77 3.83 -3.8 3.82 -3.81 3.79 -3.83 3.77 -3.87 3.75 -3.89 3.72 -3.9 3.7 -3.94 3.69 -3.94 3.65 -3.97 3.63 -4 3.61 -4.02 3.59 -4.03 3.55 -4.05 3.55 -4.09 3.52 -4.1 3.49 -4.12 3.47 -4.15 3.44 -4.16 3.42 -4.19 3.4 -4.2 3.36 -4.23 3.35 -3.74 2.92 -0.01 -0.01 -10.45 8.13 -53.91 -35.5 10.45 -8.12 -0.14 -0.09zm146.28 -143.59c7.57,-9.37 14.99,-18.86 22.18,-28.52l0.85 -1.12 56 33.76 -7.61 9.92 -1.39 1.83 -3.29 4.26 -3.32 4.24 -3.35 4.22 -3.35 4.19 -0.96 1.18 -0.01 -0.01 -7.94 9.72 -55.6 -33.86 7.94 -9.72 -0.15 -0.09zm58.35 -80.9c23.63,-36.98 44.56,-75.83 62.58,-116.23l1.93 -4.19 57.08 31.97 -5.23 11.31 0.01 0 -1.44 3.15 -2.3 4.93 -2.32 4.91 -2.35 4.9 -2.38 4.88 -2.4 4.86 -2.43 4.84 -2.47 4.84 -2.48 4.81 -2.53 4.8 -2.55 4.77 -2.58 4.76 -2.6 4.75 -2.63 4.73 -2.67 4.71 -2.69 4.7 -2.71 4.67 -2.74 4.66 -2.76 4.63 -2.81 4.63 -2.82 4.58 -2.84 4.59 -2.88 4.57 -1.59 2.49 -6.74 10.48 -56.25 -32.99 6.72 -10.45 -0.12 -0.07zm87.58 -178.65c4.18,-11.7 8.15,-23.5 11.85,-35.42l0.17 -0.51 57.5 30.89 -3.93 12.07 -0.35 1.07 -1.72 5.21 -1.75 5.2 -1.78 5.18 -1.82 5.18 -0.82 2.3 -0.02 -0.01 -4.26 11.84 -57.19 -31.09 4.26 -11.83 -0.15 -0.08zm28.65 -97.65c10.41,-45.13 17.3,-91.57 20.46,-139l0.37 -4.85 57.99 28.33 -1.04 13.51 0.01 0 -0.01 0.16 -0.44 5.67 -0.49 5.67 -0.53 5.65 -0.56 5.64 -0.6 5.64 -0.63 5.61 -0.66 5.62 -0.7 5.61 -0.74 5.58 -0.77 5.58 -0.8 5.57 -0.84 5.55 -0.86 5.55 -0.91 5.53 -0.93 5.52 -0.98 5.51 -1 5.5 -1.05 5.49 -1.07 5.47 -1.11 5.46 -1.14 5.45 -1.18 5.44 -1.2 5.43 -0.94 4.09 -2.92 12.55 -57.54 -29.94 2.92 -12.55 -0.11 -0.06z"/>
  </g>
 </g>
</svg>
