<?xml version="1.0" encoding="UTF-8"?>
<!DOCTYPE svg PUBLIC "-//W3C//DTD SVG 1.1//EN" "http://www.w3.org/Graphics/SVG/1.1/DTD/svg11.dtd">
<!-- Creator: CorelDRAW -->
<svg xmlns="http://www.w3.org/2000/svg" xml:space="preserve" width="141.946mm" height="24.9133mm" version="1.1" style="shape-rendering:geometricPrecision; text-rendering:geometricPrecision; image-rendering:optimizeQuality; fill-rule:evenodd; clip-rule:evenodd"
viewBox="0 0 12456.67 2186.3"
 xmlns:xlink="http://www.w3.org/1999/xlink"
 xmlns:xodm="http://www.corel.com/coreldraw/odm/2003">
 <defs>
  <style type="text/css">
   <![CDATA[
    .fil1 {fill:black}
    .fil0 {fill:white}
   ]]>
  </style>
 </defs>
 <g id="Layer_x0020_1">
  <metadata id="CorelCorpID_0Corel-Layer"/>
  <g>
   <path class="fil0" d="M1143.69 105.06l10169.28 0c543.46,0 988.09,444.63 988.09,988.09l0 0c0,543.46 -444.64,988.09 -988.09,988.09l-10169.28 0c-543.44,0 -988.08,-444.64 -988.08,-988.09l0 0c0,-543.46 444.64,-988.09 988.08,-988.09z"/>
   <path id="_1" class="fil1" d="M1035.46 0.46l10169.28 0c348.31,0 674.95,152.47 920.58,398.09 204.35,204.36 331.21,476.85 331.21,768.12 0,279.25 -114.21,533.09 -298.16,717.04 -186.42,186.42 -447.15,302.15 -737.17,302.15l-10169.28 0c-348.31,0 -674.94,-152.47 -920.57,-398.1 -204.36,-204.36 -331.21,-476.85 -331.21,-768.12 0,-279.25 114.2,-533.07 298.16,-717.04 186.41,-186.41 447.15,-302.14 737.15,-302.14zm108.23 104.61l10169.28 0c543.46,0 988.09,444.63 988.09,988.09 0,543.46 -444.64,988.09 -988.09,988.09l-10169.28 0c-543.44,0 -988.08,-444.64 -988.08,-988.09 0,-543.46 444.64,-988.09 988.08,-988.09z"/>
  </g>
  <g>
   <path class="fil1" d="M1250.92 250.88l-20.88 0 -40.46 -39.12c5.02,-0.11 10.07,-0.16 15.1,-0.19l5.57 0 -0.07 -0.07 208.83 0 20.97 0 40.75 39.39 -20.89 0 0.01 0.01 -208.91 0 -0.01 -0.01zm335.22 -39.39l20.97 0 40.75 39.39 -20.89 0 0.01 0.01 -41.78 0 -0.01 -0.01 -20.88 0 -40.66 -39.31 20.88 0 -0.07 -0.07 41.69 0zm334.26 0l20.97 0 40.75 39.39 -20.89 0 0.01 0.01 -208.91 0 -0.01 -0.01 -20.88 0 -40.66 -39.31 20.88 0 -0.07 -0.07 208.83 0zm167.12 0l20.97 0 40.75 39.39 -20.89 0 0.01 0.01 -41.78 0 -0.01 -0.01 -20.88 0 -40.66 -39.31 20.88 0 -0.07 -0.07 41.69 0zm334.26 0l20.97 0 40.75 39.39 -20.89 0 0.01 0.01 -208.91 0 -0.01 -0.01 -20.88 0 -40.66 -39.31 20.88 0 -0.07 -0.07 208.83 0zm167.12 0l20.97 0 40.75 39.39 -20.89 0 0.01 0.01 -41.78 0 -0.01 -0.01 -20.88 0 -40.66 -39.31 20.88 0 -0.07 -0.07 41.69 0zm334.26 0l20.97 0 40.75 39.39 -20.89 0 0.01 0.01 -208.91 0 -0.01 -0.01 -20.88 0 -40.66 -39.31 20.88 0 -0.07 -0.07 208.83 0zm167.12 0l20.97 0 40.75 39.39 -20.89 0 0.01 0.01 -41.78 0 -0.01 -0.01 -20.88 0 -40.66 -39.31 20.88 0 -0.07 -0.07 41.69 0zm334.26 0l20.97 0 40.75 39.39 -20.89 0 0.01 0.01 -208.91 0 -0.01 -0.01 -20.88 0 -40.66 -39.31 20.88 0 -0.07 -0.07 208.83 0zm167.12 0l20.97 0 40.75 39.39 -20.89 0 0.01 0.01 -41.78 0 -0.01 -0.01 -20.88 0 -40.66 -39.31 20.88 0 -0.07 -0.07 41.69 0zm334.26 0l20.97 0 40.75 39.39 -20.89 0 0.01 0.01 -208.91 0 -0.01 -0.01 -20.88 0 -40.66 -39.31 20.88 0 -0.07 -0.07 208.83 0zm167.12 0l20.97 0 40.75 39.39 -20.89 0 0.01 0.01 -41.78 0 -0.01 -0.01 -20.88 0 -40.66 -39.31 20.88 0 -0.07 -0.07 41.69 0zm334.26 0l20.97 0 40.75 39.39 -20.89 0 0.01 0.01 -208.91 0 -0.01 -0.01 -20.88 0 -40.66 -39.31 20.88 0 -0.07 -0.07 208.83 0zm167.12 0l20.97 0 40.75 39.39 -20.89 0 0.01 0.01 -41.78 0 -0.01 -0.01 -20.88 0 -40.66 -39.31 20.88 0 -0.07 -0.07 41.69 0zm334.26 0l20.97 0 40.75 39.39 -20.89 0 0.01 0.01 -208.91 0 -0.01 -0.01 -20.88 0 -40.66 -39.31 20.88 0 -0.07 -0.07 208.83 0zm167.13 0l20.97 0 40.75 39.39 -20.89 0 0.01 0.01 -41.78 0 -0.01 -0.01 -20.88 0 -40.66 -39.31 20.88 0 -0.07 -0.07 41.69 0zm334.26 0l20.97 0 40.75 39.39 -20.89 0 0.01 0.01 -208.91 0 -0.01 -0.01 -20.88 0 -40.66 -39.31 20.88 0 -0.07 -0.07 208.83 0zm167.13 0l20.97 0 40.75 39.39 -20.89 0 0.01 0.01 -41.78 0 -0.01 -0.01 -20.88 0 -40.66 -39.31 20.88 0 -0.07 -0.07 41.69 0zm334.26 0l20.97 0 40.75 39.39 -20.89 0 0.01 0.01 -208.91 0 -0.01 -0.01 -20.88 0 -40.66 -39.31 20.88 0 -0.07 -0.07 208.83 0zm167.13 0l20.97 0 40.75 39.39 -20.89 0 0.01 0.01 -41.78 0 -0.01 -0.01 -20.88 0 -40.66 -39.31 20.88 0 -0.07 -0.07 41.69 0zm334.26 0l20.97 0 40.75 39.39 -20.89 0 0.01 0.01 -208.91 0 -0.01 -0.01 -20.88 0 -40.66 -39.31 20.88 0 -0.07 -0.07 208.83 0zm167.13 0l20.97 0 40.75 39.39 -20.89 0 0.01 0.01 -41.78 0 -0.01 -0.01 -20.88 0 -40.66 -39.31 20.88 0 -0.07 -0.07 41.69 0zm334.26 0l20.97 0 40.75 39.39 -20.89 0 0.01 0.01 -208.91 0 -0.01 -0.01 -20.88 0 -40.66 -39.31 20.88 0 -0.07 -0.07 208.83 0zm167.13 0l20.97 0 40.75 39.39 -20.89 0 0.01 0.01 -41.78 0 -0.01 -0.01 -20.88 0 -40.66 -39.31 20.88 0 -0.07 -0.07 41.69 0zm334.26 0l20.97 0 40.75 39.39 -20.89 0 0.01 0.01 -208.91 0 -0.01 -0.01 -20.88 0 -40.66 -39.31 20.88 0 -0.07 -0.07 208.83 0zm167.13 0l20.97 0 40.75 39.39 -20.89 0 0.01 0.01 -41.78 0 -0.01 -0.01 -20.88 0 -40.66 -39.31 20.88 0 -0.07 -0.07 41.69 0zm334.27 0l20.97 0 40.75 39.39 -20.89 0 0.01 0.01 -208.92 0 -0.01 -0.01 -20.88 0 -40.66 -39.31 20.88 0 -0.07 -0.07 208.83 0zm167.13 0l20.97 0 40.75 39.39 -20.89 0 0.01 0.01 -41.78 0 -0.01 -0.01 -20.88 0 -40.66 -39.31 20.88 0 -0.07 -0.07 41.69 0zm334.27 0l20.97 0 40.75 39.39 -20.89 0 0.01 0.01 -208.92 0 -0.01 -0.01 -20.88 0 -40.66 -39.31 20.88 0 -0.07 -0.07 208.83 0zm167.13 0l20.97 0 40.75 39.39 -20.89 0 0.01 0.01 -41.78 0 -0.01 -0.01 -20.88 0 -40.66 -39.31 20.88 0 -0.07 -0.07 41.69 0zm334.27 0l20.97 0 40.75 39.39 -20.89 0 0.01 0.01 -208.92 0 -0.01 -0.01 -20.88 0 -40.66 -39.31 20.88 0 -0.07 -0.07 208.83 0zm167.13 0l20.97 0 40.75 39.39 -20.89 0 0.01 0.01 -41.78 0 -0.01 -0.01 -20.88 0 -40.66 -39.31 20.88 0 -0.07 -0.07 41.69 0zm334.27 0l20.97 0 40.75 39.39 -20.89 0 0.01 0.01 -208.92 0 -0.01 -0.01 -20.88 0 -40.66 -39.31 20.88 0 -0.07 -0.07 208.83 0zm167.13 0l20.97 0 40.75 39.39 -20.89 0 0.01 0.01 -41.78 0 -0.01 -0.01 -20.88 0 -40.66 -39.31 20.88 0 -0.07 -0.07 41.69 0zm334.27 0l20.97 0 40.75 39.39 -20.89 0 0.01 0.01 -208.92 0 -0.01 -0.01 -20.88 0 -40.66 -39.31 20.88 0 -0.07 -0.07 208.83 0zm167.13 0l20.97 0 40.75 39.39 -20.89 0 0.01 0.01 -41.78 0 -0.01 -0.01 -20.88 0 -40.66 -39.31 20.88 0 -0.07 -0.07 41.69 0zm334.28 0l20.97 0 40.75 39.39 -20.89 0 0.01 0.01 -208.93 0 -0.01 -0.01 -20.88 0 -40.66 -39.31 20.88 0 -0.07 -0.07 208.84 0zm167.13 0l20.97 0 40.75 39.39 -20.89 0 0.01 0.01 -41.78 0 -0.01 -0.01 -20.88 0 -40.66 -39.31 20.88 0 -0.07 -0.07 41.69 0zm334.29 0l20.97 0 40.75 39.39 -20.89 0 0.01 0.01 -208.93 0 -0.01 -0.01 -20.88 0 -40.66 -39.31 20.88 0 -0.07 -0.07 208.84 0zm167.14 0l20.97 0 40.75 39.39 -20.89 0 0.01 0.01 -41.78 0 -0.01 -0.01 -20.88 0 -40.66 -39.31 20.88 0 -0.07 -0.07 41.69 0zm133.82 0c88.53,0 174.12,13.19 254.97,37.59l22.4 36.03 -26.85 -7.13 0.01 0.01 -1.07 -0.29 -4.62 -1.21 -4.76 -1.22 -4.75 -1.18 -4.7 -1.15 -4.75 -1.11 -4.89 -1.12 -4.77 -1.07 -4.81 -1.03 -4.9 -1.03 -4.86 -0.99 -4.94 -0.97 -4.97 -0.94 -4.93 -0.91 -4.95 -0.87 -4.97 -0.85 -4.99 -0.81 -5.07 -0.8 -5.05 -0.76 -5.05 -0.73 -5.14 -0.7 -5.09 -0.68 -5.12 -0.64 -5.14 -0.61 -5.17 -0.58 -5.18 -0.54 -5.19 -0.52 -5.22 -0.48 -5.24 -0.45 -5.3 -0.42 -5.27 -0.39 -5.25 -0.35 -5.31 -0.32 -5.32 -0.29 -5.3 -0.25 -5.35 -0.22 -5.41 -0.18 -5.35 -0.16 -5.4 -0.12 -5.41 -0.09 -5.4 -0.05 -5.45 -0.02 -8.36 0 -0.01 -0.01 -20.88 0 -40.66 -39.31 20.88 0 -0.07 -0.07 8.36 0zm369.03 80.82c39.79,18.32 78.01,39.52 114.4,63.29l-14.71 19.54 -28.18 -16.94 -0.01 0.01 -0.56 -0.33 -3.63 -2.16 -3.74 -2.2 -3.76 -2.19 -3.83 -2.19 -3.78 -2.14 -3.75 -2.09 -3.72 -2.04 -3.91 -2.11 -3.85 -2.06 -3.77 -1.97 -3.78 -1.97 -3.91 -1.99 0.33 0.17 0 -0.01 -29.13 -14.53 3.3 -26.08zm214.23 138.94c74.67,65.26 138.4,142.75 188.01,229.27l-53.43 -14.49 -11.15 -18.3 -0.02 0 -1.4 -2.32 -2.65 -4.33 -2.69 -4.33 -2.68 -4.26 -2.73 -4.26 -2.74 -4.25 -2.76 -4.19 -2.78 -4.19 -2.81 -4.17 -2.83 -4.15 -2.85 -4.12 -2.87 -4.12 -2.89 -4.07 -2.9 -4.06 -2.9 -4 -2.93 -3.98 -2.99 -4.01 -2.97 -3.97 -2.98 -3.91 -3.03 -3.91 -3.01 -3.85 -3.05 -3.85 -3.11 -3.87 -3.09 -3.82 -3.08 -3.75 -3.12 -3.76 -3.12 -3.7 -3.16 -3.7 -3.18 -3.69 -3.19 -3.66 -3.23 -3.66 -3.19 -3.57 -3.19 -3.53 -3.26 -3.55 -3.26 -3.52 -3.27 -3.49 -3.28 -3.47 -3.3 -3.44 -3.28 -3.38 -3.36 -3.42 -3.29 -3.32 -3.31 -3.27 -3.4 -3.34 -3.33 -3.24 -3.38 -3.24 -3.39 -3.21 -2.62 -2.47 0.02 0 -21.14 -19.69 39.54 -1.43zm224.45 300.01c0.4,0.89 0.83,1.76 1.24,2.65l6.4 14.57 0.04 0.02c7.22,16.64 13.96,33.53 20.18,50.68l-56.53 -20.34 -6.55 -16.84 -0.97 -2.54 -1.91 -4.87 -1.94 -4.85 -1.98 -4.84 -2 -4.84 -2.02 -4.8 -2.07 -4.82 -0.51 -1.18 0.01 0 -7.55 -17.18 56.16 19.2zm48.67 133.21c0.6,2.16 1.18,4.32 1.76,6.49l2.44 9.46 0.1 0.04c13.81,53.84 22.61,109.62 25.98,166.8l-58.09 -26.28 -1.13 -14.62 -0.01 -0.01 -0.08 -1.06 -0.44 -5.53 -0.47 -5.51 -0.51 -5.5 -0.54 -5.48 -0.58 -5.47 -0.61 -5.48 -0.65 -5.45 -0.68 -5.43 -0.72 -5.42 -0.75 -5.43 -0.77 -5.4 -0.82 -5.4 -0.85 -5.39 -0.87 -5.37 -0.91 -5.35 -0.95 -5.34 -0.97 -5.34 -1.02 -5.33 -1.04 -5.32 -1.08 -5.29 -1.11 -5.29 -1.13 -5.26 -1.17 -5.25 -1.21 -5.26 -1.22 -5.22 -1.26 -5.21 -1.3 -5.2 -0.81 -3.17 -4.1 -15.9 57.55 23.17zm31.83 239.93c-0.01,1.33 -0.04,2.67 -0.05,4l-0.18 9.98 0.06 0.03c-0.29,13.89 -0.92,27.7 -1.85,41.43l-58.16 -28.08 0.7 -13.82 0.04 -0.82 0.27 -5.56 0.22 -5.59 0.2 -5.61 0.17 -5.6 0.1 -4.07 0.01 0.01 0.26 -13.97 58.21 27.69zm-9.14 122.51c-6.92,47.74 -17.65,94.29 -31.91,139.31l-57.75 -30.75 3.67 -12.27 -0.01 0 0.4 -1.33 1.53 -5.18 1.5 -5.2 1.47 -5.2 1.43 -5.21 1.41 -5.23 1.37 -5.25 1.34 -5.26 1.32 -5.27 1.28 -5.27 1.24 -5.28 1.22 -5.31 1.18 -5.31 1.14 -5.32 1.12 -5.34 1.08 -5.34 1.05 -5.36 1.02 -5.37 0.99 -5.38 0.95 -5.39 0.92 -5.4 0.88 -5.41 0.85 -5.43 0.82 -5.43 0.3 -2.04 0.01 0 1.84 -13.2 58.13 29.19 -1.84 13.2 0.04 0.02zm-48.66 187.25c-0.2,0.52 -0.39,1.04 -0.6,1.54l-4.04 10.2 0.09 0.05c-4.66,11.72 -9.59,23.3 -14.73,34.76l-57.34 -31.76 4.92 -11.59 1.96 -4.56 2.07 -4.93 2.05 -4.95 2.02 -4.96 1.46 -3.64 0.01 0 4.65 -11.73 57.48 31.57zm-46.92 102.77c-21.78,40.61 -46.61,79.37 -74.21,115.94l-56.31 -33.7 7.42 -10.14 -0.01 0 0.76 -1.04 3.11 -4.28 3.08 -4.29 3.05 -4.33 3.04 -4.34 3.01 -4.35 2.97 -4.38 2.96 -4.39 2.93 -4.42 2.9 -4.43 2.88 -4.44 2.85 -4.47 2.83 -4.49 2.8 -4.5 2.77 -4.52 2.76 -4.54 2.71 -4.55 2.69 -4.58 2.67 -4.6 2.63 -4.6 2.62 -4.62 2.59 -4.65 2.56 -4.66 2.53 -4.67 0.29 -0.54 5.85 -11.05 57.06 32.53 -5.85 11.06 0.06 0.04zm-114.01 165.03c-8.38,9.62 -16.96,19.05 -25.74,28.3l-55.63 -34.57 8.64 -9.39 0.73 -0.78 3.57 -3.89 3.54 -3.91 3.51 -3.93 3.48 -3.96 1.98 -2.27 0.02 0.01 8.31 -9.59 55.81 34.34 -8.31 9.59 0.09 0.05zm-71.82 73.5c-36.16,33.01 -75.04,63.05 -116.24,89.81l-53.6 -36.18 11.32 -7.65 -0.01 -0.01 2.84 -1.91 4.36 -2.97 4.35 -3 4.33 -3.02 4.29 -3.04 4.3 -3.09 4.27 -3.11 4.25 -3.11 4.22 -3.15 4.23 -3.19 4.19 -3.19 4.17 -3.23 4.16 -3.25 4.13 -3.27 4.11 -3.29 4.1 -3.33 4.08 -3.34 4.05 -3.37 4.04 -3.4 4.02 -3.42 3.99 -3.43 3.97 -3.48 3.96 -3.48 3.93 -3.52 3.91 -3.54 1.16 -1.07 9.58 -8.8 55.01 35.18 -9.57 8.79 0.11 0.06zm-164.04 118.74c-0.93,0.53 -1.87,1.05 -2.81,1.57l-9.69 5.28 0.09 0.06c-12.69,6.9 -25.57,13.48 -38.62,19.76l-52.13 -37.03 12.93 -6.54 -0.01 -0.01 3.02 -1.52 4.72 -2.4 4.69 -2.44 4.69 -2.46 4.65 -2.48 3.36 -1.83 0.01 0.01 12.53 -6.83 52.56 36.85zm-105.72 50.74c-0.36,0.14 -0.72,0.3 -1.08,0.44l-13.27 5.08 0.04 0.03c-56.16,21.37 -114.99,37.19 -175.81,46.78l-46.63 -38.69 17.38 -3.13 1.32 -0.23 5.27 -0.97 5.29 -1 5.27 -1.04 5.25 -1.06 5.27 -1.11 5.22 -1.12 5.22 -1.17 5.22 -1.19 5.22 -1.24 5.21 -1.25 5.18 -1.29 5.17 -1.32 5.19 -1.37 5.17 -1.39 5.13 -1.41 5.13 -1.45 5.13 -1.48 5.12 -1.52 5.11 -1.54 5.1 -1.58 5.07 -1.6 5.08 -1.64 5.06 -1.67 5.03 -1.69 5.04 -1.74 5.04 -1.76 5 -1.79 4.99 -1.82 4.98 -1.85 3.83 -1.46 0.01 0.01 14.37 -5.5 50.65 37.74zm-264.45 60.8c-3.98,0.29 -7.97,0.54 -11.96,0.76l-7.7 0.39 0.06 0.05c-14.52,0.73 -29.14,1.1 -43.84,1.1l-17.67 0 -40.89 -39.28 20.75 -0.12 -0.01 -0.01 2.53 0 5.41 -0.05 5.45 -0.09 5.43 -0.12 5.41 -0.16 5.46 -0.19 5.43 -0.22 3.72 -0.18 0.01 0.01 19.82 -1.01 42.59 39.11zm-394.41 2.31l-20.97 0 -40.75 -39.39 20.89 0 -0.01 -0.01 208.91 0 0.01 0.01 20.88 0 40.66 39.31 -20.88 0 0.07 0.07 -208.83 0zm-167.12 0l-20.97 0 -40.75 -39.39 20.89 0 -0.01 -0.01 41.78 0 0.01 0.01 20.88 0 40.66 39.31 -20.88 0 0.07 0.07 -41.69 0zm-334.26 0l-20.97 0 -40.75 -39.39 20.89 0 -0.01 -0.01 208.91 0 0.01 0.01 20.88 0 40.66 39.31 -20.88 0 0.07 0.07 -208.83 0zm-167.12 0l-20.97 0 -40.75 -39.39 20.89 0 -0.01 -0.01 41.78 0 0.01 0.01 20.88 0 40.66 39.31 -20.88 0 0.07 0.07 -41.69 0zm-334.26 0l-20.97 0 -40.75 -39.39 20.89 0 -0.01 -0.01 208.91 0 0.01 0.01 20.88 0 40.66 39.31 -20.88 0 0.07 0.07 -208.83 0zm-167.12 0l-20.97 0 -40.75 -39.39 20.89 0 -0.01 -0.01 41.78 0 0.01 0.01 20.88 0 40.66 39.31 -20.88 0 0.07 0.07 -41.69 0zm-334.26 0l-20.97 0 -40.75 -39.39 20.89 0 -0.01 -0.01 208.91 0 0.01 0.01 20.88 0 40.66 39.31 -20.88 0 0.07 0.07 -208.83 0zm-167.12 0l-20.97 0 -40.75 -39.39 20.89 0 -0.01 -0.01 41.78 0 0.01 0.01 20.88 0 40.66 39.31 -20.88 0 0.07 0.07 -41.69 0zm-334.26 0l-20.97 0 -40.75 -39.39 20.89 0 -0.01 -0.01 208.91 0 0.01 0.01 20.88 0 40.66 39.31 -20.88 0 0.07 0.07 -208.83 0zm-167.12 0l-20.97 0 -40.75 -39.39 20.89 0 -0.01 -0.01 41.78 0 0.01 0.01 20.88 0 40.66 39.31 -20.88 0 0.07 0.07 -41.69 0zm-334.26 0l-20.97 0 -40.75 -39.39 20.89 0 -0.01 -0.01 208.91 0 0.01 0.01 20.88 0 40.66 39.31 -20.88 0 0.07 0.07 -208.83 0zm-167.12 0l-20.97 0 -40.75 -39.39 20.89 0 -0.01 -0.01 41.78 0 0.01 0.01 20.88 0 40.66 39.31 -20.88 0 0.07 0.07 -41.69 0zm-334.26 0l-20.97 0 -40.75 -39.39 20.89 0 -0.01 -0.01 208.91 0 0.01 0.01 20.88 0 40.66 39.31 -20.88 0 0.07 0.07 -208.83 0zm-167.12 0l-20.97 0 -40.75 -39.39 20.89 0 -0.01 -0.01 41.78 0 0.01 0.01 20.88 0 40.66 39.31 -20.88 0 0.07 0.07 -41.69 0zm-334.26 0l-20.97 0 -40.75 -39.39 20.89 0 -0.01 -0.01 208.91 0 0.01 0.01 20.88 0 40.66 39.31 -20.88 0 0.07 0.07 -208.83 0zm-167.13 0l-20.97 0 -40.75 -39.39 20.89 0 -0.01 -0.01 41.78 0 0.01 0.01 20.88 0 40.66 39.31 -20.88 0 0.07 0.07 -41.69 0zm-334.26 0l-20.97 0 -40.75 -39.39 20.89 0 -0.01 -0.01 208.91 0 0.01 0.01 20.88 0 40.66 39.31 -20.88 0 0.07 0.07 -208.83 0zm-167.13 0l-20.97 0 -40.75 -39.39 20.89 0 -0.01 -0.01 41.78 0 0.01 0.01 20.88 0 40.66 39.31 -20.88 0 0.07 0.07 -41.69 0zm-334.26 0l-20.97 0 -40.75 -39.39 20.89 0 -0.01 -0.01 208.91 0 0.01 0.01 20.88 0 40.66 39.31 -20.88 0 0.07 0.07 -208.83 0zm-167.13 0l-20.97 0 -40.75 -39.39 20.89 0 -0.01 -0.01 41.78 0 0.01 0.01 20.88 0 40.66 39.31 -20.88 0 0.07 0.07 -41.69 0zm-334.26 0l-20.97 0 -40.75 -39.39 20.89 0 -0.01 -0.01 208.91 0 0.01 0.01 20.88 0 40.66 39.31 -20.88 0 0.07 0.07 -208.83 0zm-167.13 0l-20.97 0 -40.75 -39.39 20.89 0 -0.01 -0.01 41.78 0 0.01 0.01 20.88 0 40.66 39.31 -20.88 0 0.07 0.07 -41.69 0zm-334.26 0l-20.97 0 -40.75 -39.39 20.89 0 -0.01 -0.01 208.91 0 0.01 0.01 20.88 0 40.66 39.31 -20.88 0 0.07 0.07 -208.83 0zm-167.13 0l-20.97 0 -40.75 -39.39 20.89 0 -0.01 -0.01 41.78 0 0.01 0.01 20.88 0 40.66 39.31 -20.88 0 0.07 0.07 -41.69 0zm-334.26 0l-20.97 0 -40.75 -39.39 20.89 0 -0.01 -0.01 208.91 0 0.01 0.01 20.88 0 40.66 39.31 -20.88 0 0.07 0.07 -208.83 0zm-167.13 0l-20.97 0 -40.75 -39.39 20.89 0 -0.01 -0.01 41.78 0 0.01 0.01 20.88 0 40.66 39.31 -20.88 0 0.07 0.07 -41.69 0zm-334.27 0l-20.97 0 -40.75 -39.39 20.89 0 -0.01 -0.01 208.92 0 0.01 0.01 20.88 0 40.66 39.31 -20.88 0 0.07 0.07 -208.83 0zm-167.13 0l-20.97 0 -40.75 -39.39 20.89 0 -0.01 -0.01 41.78 0 0.01 0.01 20.88 0 40.66 39.31 -20.88 0 0.07 0.07 -41.69 0zm-334.27 0l-20.97 0 -40.75 -39.39 20.89 0 -0.01 -0.01 208.92 0 0.01 0.01 20.88 0 40.66 39.31 -20.88 0 0.07 0.07 -208.83 0zm-167.13 0l-20.97 0 -40.75 -39.39 20.89 0 -0.01 -0.01 41.78 0 0.01 0.01 20.88 0 40.66 39.31 -20.88 0 0.07 0.07 -41.69 0zm-334.27 0l-20.97 0 -40.75 -39.39 20.89 0 -0.01 -0.01 208.92 0 0.01 0.01 20.88 0 40.66 39.31 -20.88 0 0.07 0.07 -208.83 0zm-167.13 0l-20.97 0 -40.75 -39.39 20.89 0 -0.01 -0.01 41.78 0 0.01 0.01 20.88 0 40.66 39.31 -20.88 0 0.07 0.07 -41.69 0zm-334.27 0l-20.97 0 -40.75 -39.39 20.89 0 -0.01 -0.01 208.92 0 0.01 0.01 20.88 0 40.66 39.31 -20.88 0 0.07 0.07 -208.83 0zm-167.13 0l-20.97 0 -40.75 -39.39 20.89 0 -0.01 -0.01 41.78 0 0.01 0.01 20.88 0 40.66 39.31 -20.88 0 0.07 0.07 -41.69 0zm-334.27 0l-20.97 0 -40.75 -39.39 20.89 0 -0.01 -0.01 208.92 0 0.01 0.01 20.88 0 40.66 39.31 -20.88 0 0.07 0.07 -208.83 0zm-167.13 0l-20.97 0 -40.75 -39.39 20.89 0 -0.01 -0.01 41.78 0 0.01 0.01 20.88 0 40.66 39.31 -20.88 0 0.07 0.07 -41.69 0zm-334.28 0l-20.97 0 -40.75 -39.39 20.89 0 -0.01 -0.01 208.93 0 0.01 0.01 20.88 0 40.66 39.31 -20.88 0 0.07 0.07 -208.84 0zm-167.14 0l-20.97 0 -40.75 -39.39 20.89 0 -0.01 -0.01 41.78 0 0.01 0.01 20.88 0 40.66 39.31 -20.88 0 0.07 0.07 -41.69 0zm-334.29 0l-20.97 0 -40.75 -39.39 20.89 0 -0.01 -0.01 208.93 0 0.01 0.01 20.88 0 40.66 39.31 -20.88 0 0.07 0.07 -208.84 0zm-167.15 0l-11.65 0c-3.16,0 -6.29,-0.09 -9.43,-0.12l-40.62 -39.26 20.89 0 -0.01 -0.01 41.79 0 0.01 0.01 20.88 0 40.66 39.31 -20.88 0 0.07 0.07 -41.7 0zm-110 -5.51c-4,-0.45 -8.01,-0.89 -12,-1.39l-10 -1.34c-108.12,-14.81 -210.22,-49.22 -302.52,-99.58l2.29 -26.2 29.15 14.31 0 -0.01 4.73 2.33 4.03 1.97 3.88 1.87 3.91 1.84 4.04 1.88 4.07 1.86 4.07 1.83 4 1.77 4.13 1.8 4.1 1.76 4.07 1.71 4.26 1.76 4.16 1.69 4.05 1.62 4.28 1.68 4.34 1.68 4.17 1.58 4.3 1.6 4.32 1.57 4.31 1.54 4.47 1.57 4.4 1.52 4.3 1.45 4.46 1.46 4.5 1.46 4.49 1.42 4.5 1.4 4.55 1.38 4.58 1.35 4.61 1.33 4.56 1.3 4.57 1.25 4.74 1.27 4.7 1.24 4.68 1.2 4.67 1.16 4.78 1.16 4.82 1.13 4.82 1.11 4.77 1.07 4.81 1.03 4.9 1.03 4.86 0.99 4.94 0.97 4.97 0.94 4.93 0.91 4.95 0.87 4.97 0.85 4.99 0.81 5.07 0.8 5.05 0.76 5.05 0.73 1.4 0.19 0.01 0.02 23.94 3.22 33.04 38.53zm-433.62 -172.62c-31.88,-23.98 -62.08,-50.07 -90.46,-78.01l38.87 -1.94 21.4 19.68 0.01 0 1.45 1.34 3.43 3.12 3.48 3.16 3.39 3.03 3.45 3.04 3.46 3.02 3.4 2.94 3.48 2.96 3.49 2.94 3.49 2.9 3.5 2.88 2.8 2.27 -0.02 0 23.98 19.35 -32.59 7.33zm-160.93 -156.04c-1.61,-2.02 -3.26,-4.01 -4.87,-6.04l-10.07 -13.12 -0.02 0c-45.91,-60.52 -84.25,-127.04 -113.63,-198.12l56.03 19.16 7.56 17.24 -0.01 0 0.38 0.88 2.11 4.75 2.13 4.75 2.15 4.69 2.2 4.72 2.21 4.69 2.24 4.64 2.27 4.67 2.28 4.62 2.33 4.62 2.33 4.58 2.37 4.56 2.39 4.55 2.41 4.53 2.44 4.51 2.47 4.49 2.49 4.48 2.51 4.44 2.54 4.43 2.57 4.43 2.58 4.39 2.59 4.34 2.64 4.35 2.64 4.32 2.68 4.3 2.71 4.3 2.71 4.25 2.72 4.22 2.78 4.23 2.78 4.2 2.8 4.14 2.83 4.15 2.83 4.11 2.89 4.12 2.89 4.08 2.89 4.03 2.92 4.03 2.95 4.01 2.97 3.99 2.96 3.93 -0.19 -0.25 -0.01 0 14.67 19.1 -50.06 -9.51zm-153.06 -283.96c-0.25,-0.75 -0.5,-1.5 -0.74,-2.26l-4.28 -13.99 -0.03 -0.01c-4.76,-15.81 -9.07,-31.8 -12.95,-47.96l57.38 22.98 4.23 15.95 0.02 0.01 1.26 4.86 1.4 5.16 1.41 5.14 1.45 5.12 1.48 5.12 1.5 5.1 0.25 0.77 -0.01 0 4.97 16.23 -57.34 -22.24zm-30.5 -126.19c-0.25,-1.51 -0.51,-3.01 -0.75,-4.51l-1.56 -10.64 -0.06 -0.03c-6.2,-42.07 -9.43,-85.07 -9.43,-128.79l0 -0.01c0,-10.18 0.24,-20.3 0.58,-30.4l58.11 27.56 -0.18 14.07 -0.08 5.01 -0.05 5.62 -0.02 5.64 0 0.01 0.02 5.63 0.05 5.62 0.09 5.63 0.12 5.61 0.17 5.58 0.2 5.6 0.22 5.58 0.27 5.55 0.3 5.56 0.33 5.55 0.37 5.52 0.42 5.53 0.44 5.53 0.47 5.51 0.51 5.5 0.54 5.48 0.58 5.47 0.61 5.48 0.65 5.45 0.68 5.43 0.72 5.42 0.75 5.43 0.69 4.8 0.01 0 2.23 15.16 -57.98 -25.17zm-7.69 -229.09c0.01,-0.05 0.01,-0.11 0.02,-0.16l1.43 -13.24 -0.04 -0.02c1.48,-13.33 3.25,-26.57 5.32,-39.72l58.09 29.16 -1.85 13.24 -0.01 0 -0.18 1.3 -0.75 5.47 -0.72 5.45 -0.68 5.48 -0.65 5.48 -0.33 2.98 -0.01 -0.01 -1.46 13.41 -58.17 -28.82zm16.52 -104.76l0.1 -0.47 2.83 -12.17 -0.08 -0.04c10.82,-45.94 25.27,-90.52 42.97,-133.46l57.41 31.48 -4.57 11.77 0.01 0 -1.78 4.55 -1.92 5 -1.9 5.02 -1.86 5.03 -1.84 5.05 -1.81 5.05 -1.78 5.08 -1.75 5.09 -1.72 5.09 -1.68 5.12 -1.66 5.14 -1.62 5.12 -1.59 5.15 -1.57 5.17 -1.53 5.18 -1.5 5.2 -1.47 5.2 -1.43 5.21 -1.41 5.23 -1.37 5.25 -1.34 5.26 -1.32 5.27 -1.28 5.27 -0.63 2.68 -2.93 12.64 -57.95 -30.14zm71.78 -203.31c5.58,-11.22 11.37,-22.31 17.41,-33.26l57.02 32.53 -5.87 11.09 -1.28 2.4 -2.47 4.7 -2.45 4.72 -2.41 4.75 -2.4 4.77 -0.3 0.61 -5.52 11.24 -57.2 -32.29 5.52 -11.24 -0.04 -0.03zm49.5 -86.93c25.16,-38.88 53.29,-75.68 84.02,-110.11l55.8 34.32 -8.32 9.59 0.01 0.01 -0.2 0.23 -3.44 4 -3.43 4.02 -3.4 4.04 -3.38 4.06 -3.35 4.07 -3.33 4.11 -3.31 4.13 -3.28 4.14 -3.25 4.15 -3.23 4.19 -3.21 4.19 -3.18 4.23 -3.17 4.25 -3.13 4.26 -3.1 4.27 -3.09 4.31 -3.05 4.32 -3.03 4.34 -3.02 4.35 -2.97 4.38 -2.96 4.4 -2.93 4.41 -2.9 4.42 -1.4 2.17 -6.79 10.57 -56.66 -33.23 6.77 -10.53 -0.09 -0.05zm128.39 -156.38c9.32,-9.05 18.83,-17.89 28.54,-26.54l54.97 35.12 -9.57 8.81 0.01 0.01 -1.24 1.13 -3.87 3.58 -3.85 3.61 -3.83 3.63 -3.81 3.65 -2.04 1.98 -9.23 9.02 -55.25 -34.95 9.23 -9.02 -0.05 -0.04zm79.46 -68.63c40.14,-30.78 82.97,-58.21 128.03,-81.89l52.55 36.75 -12.5 6.92 -4.02 2.2 -4.62 2.57 -4.6 2.61 -4.6 2.62 -4.57 2.66 -4.55 2.68 -4.54 2.7 -4.52 2.74 -4.49 2.76 -4.49 2.8 -4.47 2.81 -4.45 2.85 -4.44 2.86 -4.41 2.9 -4.4 2.91 -4.38 2.96 -4.36 2.97 -4.34 3 -4.34 3.03 -4.3 3.05 -4.3 3.07 -4.26 3.1 -4.25 3.12 -4.23 3.16 -4.22 3.17 -3.62 2.77 -10.61 8.14 -54.25 -35.81 10.59 -8.14 -0.04 -0.03zm180.73 -107.4c1.46,-0.64 2.91,-1.28 4.37,-1.91l9.43 -4.01 -0.1 -0.07c14.07,-5.96 28.33,-11.54 42.74,-16.78l50.64 37.62 -14.3 5.55 0.02 0.01 -3.98 1.53 -4.94 1.94 -4.92 1.97 -4.91 2.01 -4.92 2.04 -4.01 1.69 -13.9 5.91 -51.21 -37.49zm117.1 -42.38c2.36,-0.68 4.74,-1.29 7.11,-1.94l8.85 -2.34 -0.06 -0.05c63.53,-16.73 129.78,-26.53 197.9,-28.58l42.7 38.99 -19.68 1.13 -4.25 0.23 -5.41 0.32 -5.37 0.36 -5.41 0.4 -5.42 0.44 -5.39 0.47 -5.39 0.49 -5.36 0.54 -5.37 0.56 -5.37 0.61 -5.35 0.63 -5.34 0.67 -5.34 0.7 -5.36 0.75 -5.32 0.76 -5.32 0.8 -5.34 0.84 -5.3 0.86 -5.28 0.9 -5.29 0.93 -5.27 0.97 -5.29 1 -5.27 1.04 -5.25 1.06 -5.27 1.11 -5.22 1.12 -5.22 1.17 -5.25 1.2 -5.2 1.22 -5.2 1.25 -5.2 1.3 -5.19 1.33 -3.31 0.86 0.01 0.01 -16.06 4.26 -48.65 -38.36z"/>
  </g>
 </g>
</svg>
