<?xml version="1.0" encoding="UTF-8"?>
<!DOCTYPE svg PUBLIC "-//W3C//DTD SVG 1.1//EN" "http://www.w3.org/Graphics/SVG/1.1/DTD/svg11.dtd">
<!-- Creator: CorelDRAW -->
<svg xmlns="http://www.w3.org/2000/svg" xml:space="preserve" width="140.77mm" height="26.6443mm" version="1.1" style="shape-rendering:geometricPrecision; text-rendering:geometricPrecision; image-rendering:optimizeQuality; fill-rule:evenodd; clip-rule:evenodd"
viewBox="0 0 4046.88 765.98"
 xmlns:xlink="http://www.w3.org/1999/xlink"
 xmlns:xodm="http://www.corel.com/coreldraw/odm/2003">
 <defs>
  <style type="text/css">
   <![CDATA[
    .fil1 {fill:black}
    .fil0 {fill:white}
   ]]>
  </style>
 </defs>
 <g id="Layer_x0020_1">
  <metadata id="CorelCorpID_0Corel-Layer"/>
  <polygon class="fil0" points="55.98,55.98 3672.42,55.98 3998.21,381.76 3998.21,381.77 3672.42,707.55 55.98,707.55 "/>
  <g id="_1643366793728">
   <path class="fil1" d="M89.73 697.82l-21.51 0.07 0 -26.75c11.88,2.76 9.92,6.97 24.36,7.29l-2.85 19.38zm22.35 0.07c3.92,-6.96 2.43,-12.29 2.43,-24.32l3523.06 0c9.43,0 15.58,24 41.17,-14.84 2.8,-4.25 5.55,-6.38 9.37,-10.1 12.89,-12.59 21.38,-23.76 34.13,-36.46l36.59 -33.99c6.68,-6.59 11.53,-11.64 18.23,-18.28 7.87,-7.81 10.13,-10.94 17.16,-19.35 16.31,-19.47 65.44,-62.75 88.87,-86.39 12.5,-12.61 35.91,-43.17 54.16,-55.37 5.69,3.8 13.34,9.06 17.05,14.59 -7.16,10.67 -21.24,22.42 -31.06,32.22 -5.81,5.8 -10.58,9.78 -15.59,16.05l-30.67 32.62c-6.8,6.82 -10.52,8.43 -17.12,14.52 -11.57,10.68 -21.58,21.6 -32.86,32.86 -21.43,21.39 -40.25,46.45 -64.15,64.86 -10.7,8.25 -22.41,21.33 -32.14,31.15l-46.83 50.53c-13.61,16.36 -51.4,9.7 -87.73,9.7 -1161.36,0 -2322.72,0 -3484.07,0zm3854.41 -335.57l21.42 19.97 -14.6 16.03c-8.16,-5.31 -13.06,-7.7 -19,-16.54 5.43,-2.87 7.34,-4.06 12.18,-7.3l0 -12.16zm-316.73 289.37l-3535.24 0 0 -537.4 3535.24 0c9.18,0 33.78,33.22 50.87,48.93l99.53 100.06c6.94,6.67 11.25,8.59 18.36,15.72l40.53 39.8c0.49,0.51 1.83,2.04 2.3,2.57 3.21,3.53 4.75,5.25 8.29,8.74l50.56 51.67c-7.1,10.58 -22.39,23.61 -32.28,33.43 -14.62,14.5 -34.26,38.46 -49.96,52.26 -42.6,37.44 -62.6,63.04 -101.04,100.98 -7.22,7.12 -10.85,8.32 -18.06,16.02 -16.19,17.29 -11.23,9.46 -32.9,35.25 -0.19,0.22 -3.43,3.74 -3.5,3.81l-13.83 12.95c-4.44,4.48 -12.04,15.2 -18.87,15.2zm316.73 -289.37l-2.44 -2.43 2.44 2.43zm-2.44 -2.43l-2.43 -2.43 2.43 2.43zm-3895.82 -248.03c6.97,3.91 12.31,2.43 24.36,2.43l0 537.4c-21.01,0 -14.9,-1.46 -24.36,4.86l0 -406.09c0,-46.2 0,-92.41 0,-138.61zm3893.39 245.6c-16.06,0 -15.26,3.64 -24.36,9.73 -6.98,-10.41 -23.76,-24.12 -33.44,-32.28l-169.37 -171.39c-11.9,-12.01 -23.96,-19.44 -35.24,-32.92 -6.7,-7.99 -8.32,-10.63 -15.98,-18.09 -9.31,-9.07 -8.09,-9 -13.97,-20.1l-3554.73 0c-0.22,-9.7 -1.12,-9 -4.87,-14.59 -9.46,0 -16.72,-0.47 -17.05,14.59 -11.09,0 -16.51,-1.33 -24.36,2.43 0,-11.83 -0.85,-11.87 -4.87,-19.45 -7.47,0.62 -11.71,2.31 -17.06,4.86 0,39.94 -2.45,612.96 0.25,622.1 7.26,24.59 50.02,17.43 87.46,17.43l3474.33 0c17.08,0 34.16,-0.08 51.23,0.06 23.77,0.2 26.26,-2.97 38.33,-15.24 9.01,-9.16 16.42,-16.49 25.56,-25.55 10.09,-10.01 15.67,-18.21 25.57,-27.98l105.99 -105.77c18.24,-18.21 35.27,-32.87 53.6,-51.06 22.71,-22.53 49.41,-55.53 77.72,-78.06 8.44,-6.72 21.62,-18.85 23.62,-30.22 3.15,-17.89 -25.7,-38.73 -46.52,-59.51l-26.83 -24.28c-6.07,-5.55 -6.47,-8.56 -12.12,-14.65l-66.61 -64.83c-2.94,-2.27 -79.97,-82.17 -106.39,-105.38 -30.15,-26.5 -52.78,-68.64 -84.71,-71.08 -35.66,-2.73 -219.87,-0.03 -265.54,-0.03l-3315.96 0c-15.06,-0.01 -43.44,-5.64 -38.79,13.95 2.87,12.1 23.03,7.94 43.67,7.94l3527.93 0c59.81,0 47.71,-6.33 80.16,24.56 13.25,12.62 22.61,28.51 38.87,41.45 38.54,30.68 77.34,81.42 105.49,103.84l65.78 65.66c15.73,19.68 40.58,35 53.24,53.86z"/>
   <path class="fil1" d="M82.84 765.98l3588.84 0c7.28,0 13.29,-9.05 10.86,-15.6 -3.29,-8.88 -11.65,-6.54 -22.96,-6.37 -131.7,1.93 -277.07,0.08 -409.4,0.08l-3055.26 0c-38.95,0 -78.14,0.44 -117.05,0.11 -15,-0.13 -13.94,-2.47 -25.41,-4.21 -20.43,-3.12 -29,25.99 30.39,25.99z"/>
   <path class="fil1" d="M65.78 9.73c0,6.38 1.81,12.16 9.75,12.16l3588.84 0c21.44,0 16.68,-21.89 4.87,-21.89l-3593.71 0c-5.7,0 -9.75,4.03 -9.75,9.73z"/>
   <path class="fil1" d="M-0 87.54l0 600.62c0,11.78 21.93,16.54 21.93,-4.86l0 -590.9c0,-21.4 -21.93,-16.65 -21.93,-4.86z"/>
   <path class="fil1" d="M3691.17 21.89c9.64,18.18 8.02,5.34 21.74,19.64 7.12,7.41 12.67,13.52 20.29,21.09 14.7,14.58 24.53,29.55 40.81,41.95 25.86,19.7 69.67,72.61 105.36,103.97 7.38,6.49 13.61,13.55 20.73,20.65l103.55 103.35c6.97,6.98 13.8,17.63 26.19,17.63 5.51,0 16.51,-6.97 0.75,-22.6l-65.84 -63.21c-17.74,-21.42 -43.16,-45.3 -63.4,-65.6 -30.28,-30.38 -10.38,-4.67 -42.76,-42.44l-6.2 -5.97c-0.37,-0.34 -0.94,-0.78 -1.31,-1.12l-62.75 -61.39c-24.4,-22.44 -63.11,-72.46 -87.41,-78.11 -4.55,3.94 -6.71,6.43 -9.75,12.16z"/>
   <path class="fil1" d="M3708.22 736.8c0,8.25 4.28,7.29 12.18,7.29 9.07,0 73.51,-74.34 91.99,-90.56 30.77,-27.01 21.99,-20.64 50.82,-51.4 0.34,-0.37 0.83,-0.9 1.17,-1.26l82.04 -78.61c7.72,-7.79 11.15,-13.77 19.43,-21.94l30.48 -30.37c18.64,-19.49 8.64,-7.8 21.91,-19.47 5.7,-5.01 28.63,-28.69 28.63,-34.65 0,-20.36 -14.39,-16.51 -20.56,-8.37 -6.87,9.05 -0.16,5.34 -8.65,13.25 -6.52,6.08 -15.02,14.16 -21.95,19.43 -17.92,13.65 -60.43,61.29 -82.22,83.3l-187.62 187.23c-6.99,6.95 -17.66,13.78 -17.66,26.14z"/>
  </g>
 </g>
</svg>
